<?xml version="1.0" standalone="no"?>
<!DOCTYPE svg PUBLIC "-//W3C//DTD SVG 20010904//EN"
 "http://www.w3.org/TR/2001/REC-SVG-20010904/DTD/svg10.dtd">
<svg version="1.0" xmlns="http://www.w3.org/2000/svg"
 width="3425.000000pt" height="2204.000000pt" viewBox="0 0 3425.000000 2204.000000"
 preserveAspectRatio="xMidYMid meet">

<g transform="translate(0.000000,2204.000000) scale(0.100000,-0.100000)"
fill="#000000" stroke="none">
<path d="M0 11025 l0 -11015 17125 0 17125 0 0 11015 0 11015 -17125 0 -17125
0 0 -11015z m3141 9736 c167 -52 324 -212 375 -381 l18 -60 56 0 c71 0 162
-24 220 -57 93 -54 185 -180 197 -272 4 -28 0 -40 -15 -54 -28 -26 -73 -19
-88 13 -70 153 -106 194 -203 231 -77 29 -157 22 -235 -19 -61 -32 -84 -32
-112 -1 -24 26 -9 67 34 94 39 25 37 46 -14 152 -116 240 -394 331 -628 205
-96 -52 -199 -178 -221 -272 -5 -23 -1 -27 46 -44 29 -10 70 -29 91 -42 32
-20 38 -30 38 -58 0 -64 -38 -73 -125 -30 -50 24 -72 29 -135 29 -89 -1 -154
-29 -213 -94 -52 -58 -69 -97 -74 -171 -7 -94 21 -164 92 -228 88 -80 97 -82
487 -82 325 0 339 -1 358 -20 24 -24 25 -48 4 -78 l-15 -22 -342 0 c-189 0
-361 5 -385 10 -102 24 -214 105 -265 193 -138 235 -11 533 255 601 l53 13 25
74 c43 127 105 213 205 284 154 110 339 141 516 86z m1577 -608 l-3 -48 -67
-3 -68 -3 0 -199 0 -200 -55 0 -55 0 0 200 0 200 -65 0 -65 0 0 50 0 50 191 0
190 0 -3 -47z m277 -133 l0 -45 -42 -3 c-70 -5 -83 -31 -83 -163 l0 -109 -55
0 -55 0 0 180 0 180 40 0 c38 0 40 -1 40 -32 l0 -32 28 26 c27 26 83 48 112
45 11 -2 15 -15 15 -47z m177 -72 c4 -101 7 -113 27 -130 13 -10 34 -18 48
-18 63 0 83 43 83 178 l0 82 45 0 45 0 0 -190 c0 -213 -4 -229 -66 -277 -52
-39 -149 -44 -214 -11 -25 13 -45 28 -45 33 0 6 9 22 21 37 20 26 22 26 60 13
78 -28 144 -10 144 40 0 25 0 25 -34 9 -51 -25 -118 -12 -160 31 -42 42 -56
97 -56 219 l0 96 49 0 48 0 5 -112z m-1892 -234 c0 -124 0 -125 -22 -122 -22
3 -23 7 -23 91 0 48 -2 87 -4 87 -2 0 -12 -7 -21 -15 -15 -14 -19 -14 -31 1
-11 14 -8 20 27 49 69 60 74 54 74 -91z m197 111 c28 -19 44 -96 33 -155 -8
-45 -38 -80 -69 -80 -66 1 -91 38 -91 135 0 57 3 69 25 90 28 29 70 32 102 10z
m383 -111 c0 -124 0 -125 -22 -122 -22 3 -23 8 -26 91 -3 85 -3 87 -23 76 -16
-8 -24 -8 -33 1 -8 9 -1 20 28 46 70 61 76 53 76 -92z m190 116 c38 -21 53
-130 26 -195 -17 -40 -52 -53 -95 -35 -40 16 -54 56 -49 136 3 55 8 70 27 85
25 21 62 24 91 9z m430 -350 l0 -100 95 0 94 0 3 98 3 97 50 0 50 0 3 -242 2
-243 -55 0 -55 0 0 100 0 100 -95 0 -95 0 0 -100 0 -100 -50 0 -50 0 0 238 c0
131 3 242 7 245 3 4 26 7 50 7 l43 0 0 -100z m1360 -35 c0 -123 2 -135 18
-135 28 0 57 25 92 80 31 49 33 50 81 50 27 0 49 -2 49 -5 0 -14 -102 -155
-112 -155 -7 0 0 -12 13 -27 14 -16 41 -52 59 -81 18 -30 40 -60 47 -68 12
-12 7 -14 -41 -14 l-55 0 -41 60 c-40 59 -65 80 -94 80 -13 0 -16 -13 -16 -70
l0 -70 -50 0 -50 0 0 238 c0 131 3 242 7 245 3 4 26 7 50 7 l43 0 0 -135z
m-1979 16 c26 -26 29 -36 29 -94 0 -49 -5 -70 -20 -90 -44 -56 -121 -38 -140
34 -11 42 -6 109 12 142 10 19 41 35 71 36 10 1 32 -12 48 -28z m-581 -96 l0
-115 -26 0 -27 0 5 85 c2 47 2 85 -1 85 -2 0 -12 -7 -21 -15 -15 -14 -18 -14
-30 0 -11 14 -8 20 21 45 19 16 44 29 57 30 22 0 22 -2 22 -115z m190 0 l0
-115 -25 0 c-25 0 -25 1 -25 87 0 83 -1 85 -18 70 -23 -21 -28 -21 -36 0 -9
22 48 72 82 73 22 0 22 -2 22 -115z m190 0 l0 -115 -25 0 c-25 0 -25 1 -25 87
0 83 -1 86 -19 69 -17 -15 -19 -15 -32 0 -11 14 -9 20 21 45 19 16 45 29 58
29 22 0 22 -2 22 -115z m1463 61 c44 -22 47 -22 47 -5 0 15 8 19 35 19 l35 0
0 -175 0 -175 -35 0 c-29 0 -35 4 -35 20 0 20 -1 20 -31 -2 -46 -34 -131 -32
-186 4 -51 34 -73 80 -73 155 0 140 123 220 243 159z m431 13 c23 -6 56 -21
72 -34 l29 -23 -28 -30 -28 -29 -37 19 c-71 37 -142 -2 -142 -78 0 -35 5 -47
31 -68 36 -31 73 -33 116 -6 l32 19 26 -31 c30 -36 25 -47 -39 -77 -70 -34
-134 -25 -190 27 -31 30 -65 95 -66 127 0 71 64 167 124 184 43 13 51 13 100
0z m-2304 -289 c14 -14 20 -33 20 -68 0 -79 -46 -117 -92 -75 -26 24 -25 116
2 143 11 11 27 20 35 20 8 0 24 -9 35 -20z m270 0 c26 -26 28 -114 3 -142 -17
-19 -49 -23 -70 -10 -38 24 -38 130 0 157 29 20 43 19 67 -5z m464 -2 c9 -12
16 -43 16 -68 0 -58 -22 -90 -60 -90 -38 0 -60 32 -60 90 0 58 22 90 60 90 18
0 34 -8 44 -22z m121 -68 c0 -73 -2 -85 -17 -88 -16 -3 -18 5 -18 63 0 57 -2
66 -14 56 -26 -21 -30 9 -5 35 42 44 54 29 54 -66z m-725 -5 c0 -78 -2 -85
-20 -85 -18 0 -20 7 -20 67 0 52 -3 64 -12 55 -16 -16 -28 -15 -28 2 0 18 38
46 62 46 16 0 18 -10 18 -85z m270 -1 c0 -76 -2 -85 -17 -82 -14 2 -19 15 -21
61 -2 46 -6 58 -17 53 -8 -3 -17 0 -21 6 -8 13 34 47 59 48 15 0 17 -11 17
-86z m817 -91 c58 -79 152 -194 159 -194 3 0 47 50 98 113 71 88 97 114 119
116 l27 3 0 -256 0 -256 -47 3 -48 3 -5 149 -5 148 -68 -86 c-38 -47 -70 -86
-71 -86 -2 0 -34 39 -72 87 l-69 87 -3 -152 -3 -152 -49 0 -50 0 0 255 0 255
29 0 c23 0 37 -9 58 -37z m-635 -30 c13 -11 18 -30 18 -65 0 -67 -13 -88 -54
-88 -45 0 -61 22 -61 85 0 29 6 59 14 68 17 22 59 22 83 0z m128 -68 c0 -78
-2 -85 -20 -85 -18 0 -20 7 -20 59 0 54 -2 59 -20 54 -12 -3 -20 0 -20 7 0 16
41 49 63 50 15 0 17 -11 17 -85z m144 63 c9 -12 16 -41 16 -63 0 -53 -23 -85
-60 -85 -36 0 -53 28 -53 85 0 22 5 50 12 63 16 30 64 30 85 0z m-876 -40 c17
-17 15 -83 -2 -98 -43 -35 -90 23 -67 83 11 29 47 37 69 15z m82 -48 c0 -49
-3 -60 -16 -60 -14 0 -16 8 -12 44 4 35 2 43 -8 39 -17 -6 -18 9 -2 25 27 27
38 13 38 -48z m1919 7 c19 -7 48 -29 65 -50 26 -33 31 -47 31 -95 l0 -57 -122
-3 c-71 -1 -123 -7 -123 -12 0 -6 9 -19 20 -30 23 -23 99 -28 146 -10 24 10
30 8 50 -17 27 -34 20 -45 -42 -69 -59 -22 -160 -15 -202 15 -63 45 -89 151
-57 228 21 50 42 72 90 94 46 21 95 23 144 6z m-1659 -123 c15 -38 12 -62 -10
-84 -24 -24 -34 -25 -54 -4 -19 18 -21 85 -4 102 21 21 58 14 68 -14z m80 -34
c0 -33 -4 -60 -10 -60 -5 0 -10 18 -10 41 0 31 -3 40 -14 36 -22 -9 -28 5 -9
25 31 34 43 23 43 -42z m21835 -900 c201 -14 385 -32 635 -65 275 -37 444 -69
680 -130 113 -29 246 -63 295 -75 102 -26 423 -130 564 -184 51 -20 99 -36
106 -36 15 0 181 -70 342 -144 67 -31 127 -56 134 -56 28 0 584 -294 706 -374
l33 -21 0 -3121 0 -3120 -27 -20 c-16 -11 -53 -35 -83 -53 -30 -17 -86 -52
-125 -76 -38 -24 -97 -57 -130 -74 -33 -17 -98 -55 -145 -85 -120 -77 -171
-106 -186 -106 -7 0 -16 -4 -19 -10 -3 -5 -34 -26 -68 -46 -34 -19 -93 -55
-132 -80 -38 -24 -89 -53 -111 -63 -23 -11 -76 -41 -118 -68 -42 -26 -107 -67
-144 -90 -37 -24 -71 -43 -77 -43 -5 -1 -53 -28 -105 -60 -52 -32 -121 -74
-152 -92 -32 -18 -58 -36 -58 -40 0 -5 -7 -8 -15 -8 -18 0 -82 -36 -215 -121
-52 -34 -117 -72 -145 -85 -58 -28 -158 -89 -206 -125 -19 -14 -70 -45 -114
-69 -44 -24 -98 -55 -120 -70 -22 -14 -62 -39 -90 -55 -27 -15 -52 -31 -55
-35 -5 -7 -63 -38 -110 -59 -14 -6 -56 -31 -95 -56 -96 -62 -192 -119 -272
-162 -38 -19 -70 -38 -73 -42 -3 -4 -32 -23 -65 -41 -33 -19 -78 -47 -99 -62
-21 -15 -44 -28 -49 -28 -10 0 -197 -108 -207 -120 -8 -9 -131 -80 -139 -80
-4 0 -47 -25 -96 -55 -48 -30 -90 -55 -94 -55 -3 0 -24 12 -46 27 -22 16 -70
44 -106 63 -74 40 -161 91 -264 156 -38 24 -86 51 -105 60 -32 15 -137 78
-265 159 -27 18 -61 36 -74 40 -13 4 -42 20 -65 35 -89 60 -208 131 -283 171
-43 22 -100 55 -128 73 -108 71 -182 116 -215 131 -19 9 -66 35 -105 60 -97
61 -221 134 -280 165 -27 15 -67 38 -87 51 -100 66 -186 117 -208 124 -23 7
-76 39 -175 105 -45 30 -101 62 -190 110 -63 34 -144 83 -226 138 -27 17 -72
43 -101 57 -49 23 -73 37 -203 120 -27 18 -81 49 -120 70 -66 35 -205 119
-285 171 -19 13 -51 30 -70 38 -20 8 -58 29 -86 48 -28 18 -99 62 -158 98
l-108 65 6 1694 c3 932 6 2337 6 3122 l0 1427 71 43 c149 92 231 139 242 139
7 0 35 13 62 29 79 45 346 181 356 181 6 0 65 25 132 56 182 84 328 144 349
144 10 0 26 4 36 10 53 31 433 158 602 202 85 22 196 51 245 64 137 36 431
101 515 113 366 53 630 84 865 100 178 12 727 13 910 1z m-22357 -2430 c222
-25 381 -89 493 -200 113 -113 159 -239 159 -445 0 -214 -51 -349 -179 -475
-78 -77 -155 -125 -258 -161 -120 -42 -184 -50 -405 -56 l-218 -5 0 -344 0
-344 -230 0 -230 0 0 1013 c0 558 3 1017 7 1020 11 11 755 8 861 -3z m2562
-185 l0 -195 -305 0 -305 0 0 -825 0 -825 -230 0 -230 0 0 825 0 825 -305 0
-305 0 0 195 0 195 840 0 840 0 0 -195z m1330 -670 l0 -805 225 0 225 0 0
-185 0 -185 -720 0 -720 0 0 185 0 185 265 0 265 0 0 575 0 575 -220 0 -221 0
3 141 3 142 135 27 c159 32 235 57 339 110 l76 39 173 1 172 0 0 -805z m-2301
-2179 c-2 -2 -141 -7 -309 -11 -168 -3 -307 -8 -309 -11 -2 -2 32 -4 77 -4
l82 0 0 -271 c0 -213 3 -269 13 -263 9 6 9 4 -1 -8 -19 -24 -3 -29 95 -29 123
1 123 1 123 -8 0 -4 -54 -5 -120 -3 l-120 4 0 -226 0 -226 55 0 55 0 0 75 c0
42 4 75 10 75 5 0 6 -7 3 -17 -4 -11 -3 -14 5 -9 7 4 12 2 12 -3 0 -6 -4 -11
-10 -11 -6 0 -10 -27 -10 -60 0 -66 3 -63 -72 -62 l-38 0 0 -301 0 -300 108 5
c59 3 127 2 152 -2 25 -4 -523 -8 -1217 -9 l-1263 -1 0 840 0 840 1342 0 c738
0 1339 -2 1337 -4z m-168 -643 c13 -17 13 -17 -6 -3 -11 8 -22 16 -24 17 -2 2
0 3 6 3 6 0 17 -8 24 -17z m-93 -69 c26 -18 30 -65 7 -84 -8 -7 -35 -15 -60
-18 l-45 -5 0 62 0 61 38 0 c21 0 48 -7 60 -16z m80 -168 c-7 -8 -17 -12 -22
-9 -4 3 -2 9 5 14 22 13 31 11 17 -5z m-90 -101 l37 -70 60 -6 60 -6 -67 -1
c-55 -2 -68 1 -68 13 0 8 -5 15 -11 15 -5 0 -8 4 -5 8 2 4 1 14 -5 22 -7 13
-9 12 -9 -2 0 -10 -4 -18 -10 -18 -12 0 -13 10 -1 29 10 15 -11 68 -33 84 -7
6 -7 7 2 5 8 -2 30 -35 50 -73z m110 30 c-3 -3 -9 2 -12 12 -6 14 -5 15 5 6 7
-7 10 -15 7 -18z m-230 -152 c-10 -2 -26 -2 -35 0 -10 3 -2 5 17 5 19 0 27 -2
18 -5z m1267 -1443 c44 -27 69 -81 62 -136 -6 -58 -30 -92 -80 -115 -133 -60
-270 44 -228 173 14 42 57 86 97 98 41 13 111 4 149 -20z m4074 -197 c0 -76
-4 -172 -8 -213 -4 -41 -7 -76 -5 -78 1 -2 24 13 51 34 77 59 127 77 213 78
117 0 180 -35 225 -124 37 -74 45 -147 45 -432 l0 -268 -120 0 -120 0 0 248
c0 136 -5 265 -10 287 -5 23 -21 50 -36 64 -24 20 -36 23 -85 19 -46 -3 -66
-11 -103 -39 l-45 -34 -1 -272 0 -273 -120 0 -120 0 0 570 0 570 120 0 120 0
-1 -137z m4381 -433 l0 -570 -99 0 -99 0 -7 40 c-8 45 -14 48 -39 22 -31 -35
-126 -76 -187 -80 -94 -7 -162 20 -235 92 -83 83 -105 142 -112 298 -4 99 -1
127 17 186 25 83 80 160 146 208 63 44 107 58 185 57 67 0 106 -14 165 -58
l30 -22 -4 198 -3 199 121 0 121 0 0 -570z m-11710 424 c17 -36 62 -146 102
-245 40 -98 75 -179 78 -179 3 0 50 109 105 241 55 133 104 243 110 246 6 2
63 2 126 1 l116 -3 -168 -345 -168 -345 -1 -182 0 -183 -120 0 -120 0 0 175 0
176 -170 350 c-93 193 -170 353 -170 355 0 2 56 4 125 4 l126 0 29 -66z m5409
-56 c19 -68 51 -186 71 -263 l37 -140 12 45 c29 112 113 418 122 448 l11 32
124 0 124 0 0 -530 0 -530 -101 0 -102 0 6 308 c3 169 11 349 17 401 5 52 9
96 7 97 -2 2 -22 -63 -45 -144 -23 -81 -59 -199 -80 -262 l-39 -115 -59 -3
-60 -3 -47 148 c-26 81 -61 203 -78 271 -18 67 -34 121 -35 119 -2 -1 1 -41 7
-87 5 -47 12 -230 16 -407 l6 -323 -102 0 -101 0 0 530 0 530 128 0 128 0 33
-122z m-4079 -140 c70 -26 149 -104 175 -174 16 -42 19 -88 23 -336 l4 -288
-101 0 -100 0 -7 45 c-3 25 -8 45 -11 45 -3 0 -18 -9 -33 -20 -16 -11 -59 -35
-97 -53 -61 -29 -77 -32 -158 -32 -105 0 -151 19 -207 85 -62 72 -75 168 -34
257 49 105 180 161 444 188 58 7 62 9 56 29 -18 59 -71 86 -166 86 -70 -1
-119 -13 -210 -53 l-36 -17 -41 76 c-23 42 -41 77 -41 80 0 8 98 53 161 74
127 43 273 46 379 8z m956 8 c56 -15 149 -56 178 -79 19 -14 18 -17 -33 -85
-50 -69 -53 -71 -75 -57 -39 26 -137 55 -205 61 -78 7 -135 -11 -144 -46 -10
-39 28 -64 138 -90 207 -49 307 -98 340 -167 74 -155 -27 -305 -234 -349 -84
-17 -188 -18 -271 0 -73 16 -202 67 -239 95 l-24 18 44 64 c24 35 47 67 50 71
3 5 34 -5 70 -21 96 -45 180 -64 270 -59 84 3 119 22 119 63 0 38 -35 56 -174
91 -247 61 -326 124 -326 259 0 96 48 162 152 210 97 44 245 53 364 21z m2137
2 c20 -6 37 -14 37 -17 -1 -3 -11 -49 -24 -101 -17 -69 -27 -94 -37 -92 -141
35 -237 15 -322 -67 -73 -69 -77 -84 -77 -321 l0 -210 -120 0 -120 0 0 405 0
406 98 -3 97 -3 10 -89 10 -90 29 43 c90 130 260 186 419 139z m2247 -11 c75
-28 159 -112 188 -189 25 -68 37 -168 28 -232 l-7 -46 -275 0 -275 0 6 -22
c13 -43 46 -87 79 -108 76 -46 212 -47 319 -1 l44 19 37 -65 c20 -36 36 -69
36 -74 0 -15 -99 -60 -178 -80 -232 -59 -457 31 -545 219 -38 83 -48 205 -23
302 61 237 325 366 566 277z m1780 4 c14 -9 35 -37 48 -61 12 -24 22 -39 22
-32 0 7 18 32 40 56 50 54 108 73 173 55 50 -13 81 -40 110 -94 21 -38 22 -54
25 -382 l3 -343 -116 0 -115 0 0 299 c0 252 -2 300 -15 311 -22 18 -58 5 -78
-29 -15 -26 -17 -61 -17 -305 l0 -276 -95 0 -95 0 0 293 c0 315 -3 332 -50
325 -12 -1 -32 -16 -44 -31 -20 -27 -21 -42 -24 -308 l-3 -279 -109 0 -110 0
0 405 0 406 88 -3 87 -3 9 -47 9 -46 46 50 c64 69 147 85 211 39z m1015 19
c126 -21 251 -112 303 -222 46 -98 53 -247 17 -348 -24 -69 -83 -147 -143
-190 -79 -57 -139 -75 -252 -75 -86 0 -101 3 -162 32 -90 42 -160 110 -200
191 -28 57 -33 78 -36 165 -6 129 14 206 74 287 64 88 152 141 261 160 68 11
71 11 138 0z m970 0 c126 -21 251 -112 303 -222 46 -98 53 -247 17 -348 -24
-69 -83 -147 -143 -190 -79 -57 -139 -75 -252 -75 -86 0 -101 3 -162 32 -90
42 -160 110 -200 191 -28 57 -33 78 -36 165 -6 129 14 206 74 287 64 88 152
141 261 160 68 11 71 11 138 0z m-7145 -415 l0 -405 -120 0 -120 0 0 310 0
310 -160 0 -160 0 0 95 0 95 280 0 280 0 0 -405z m-3520 -1499 l0 -55 28 15
c41 21 80 17 107 -11 23 -22 25 -31 25 -125 0 -93 -1 -100 -20 -100 -19 0 -20
7 -20 94 0 73 -4 98 -16 110 -23 24 -60 19 -83 -10 -17 -22 -21 -41 -21 -110
0 -77 -2 -84 -20 -84 -19 0 -20 7 -20 165 0 158 1 165 20 165 18 0 20 -7 20
-54z m2130 -111 c0 -158 -1 -165 -20 -165 -19 0 -20 7 -20 165 0 158 1 165 20
165 19 0 20 -7 20 -165z m990 0 c0 -158 -1 -165 -20 -165 -11 0 -20 7 -20 16
0 14 -2 14 -22 0 -54 -38 -129 -5 -148 65 -31 113 65 212 148 153 22 -15 22
-15 22 40 0 49 2 56 20 56 19 0 20 -7 20 -165z m430 111 l0 -55 28 15 c41 21
80 17 107 -11 23 -22 25 -31 25 -125 0 -93 -1 -100 -20 -100 -19 0 -20 7 -20
94 0 73 -4 98 -16 110 -23 24 -60 19 -83 -10 -17 -22 -21 -41 -21 -110 0 -77
-2 -84 -20 -84 -19 0 -20 7 -20 165 0 158 1 165 20 165 18 0 20 -7 20 -54z
m3030 29 c0 -18 -5 -25 -20 -25 -15 0 -20 7 -20 25 0 18 5 25 20 25 15 0 20
-7 20 -25z m2780 -140 c0 -158 -1 -165 -20 -165 -11 0 -20 7 -20 16 0 14 -2
14 -22 0 -54 -38 -129 -5 -148 65 -31 113 65 212 148 153 22 -15 22 -15 22 40
0 49 2 56 20 56 19 0 20 -7 20 -165z m410 0 c0 -158 -1 -165 -20 -165 -11 0
-20 7 -20 16 0 14 -2 14 -22 0 -54 -38 -129 -5 -148 65 -31 113 65 212 148
153 22 -15 22 -15 22 40 0 49 2 56 20 56 19 0 20 -7 20 -165z m2810 0 c0 -158
-1 -165 -20 -165 -11 0 -20 7 -20 16 0 14 -2 14 -22 0 -54 -38 -129 -5 -148
65 -31 113 65 212 148 153 22 -15 22 -15 22 40 0 49 2 56 20 56 19 0 20 -7 20
-165z m570 111 l0 -55 28 15 c41 21 80 17 107 -11 23 -22 25 -31 25 -125 0
-93 -1 -100 -20 -100 -19 0 -20 7 -20 94 0 73 -4 98 -16 110 -23 24 -60 19
-83 -10 -17 -22 -21 -41 -21 -110 0 -77 -2 -84 -20 -84 -19 0 -20 7 -20 165 0
158 1 165 20 165 18 0 20 -7 20 -54z m1270 0 l0 -55 28 15 c41 21 80 17 107
-11 23 -22 25 -31 25 -125 0 -93 -1 -100 -20 -100 -19 0 -20 7 -20 94 0 73 -4
98 -16 110 -23 24 -60 19 -83 -10 -17 -22 -21 -41 -21 -110 0 -77 -2 -84 -20
-84 -19 0 -20 7 -20 165 0 158 1 165 20 165 18 0 20 -7 20 -54z m590 29 c0
-18 -5 -25 -20 -25 -15 0 -20 7 -20 25 0 18 5 25 20 25 15 0 20 -7 20 -25z
m-12490 -30 c0 -34 1 -35 40 -35 29 0 40 -4 40 -15 0 -11 -11 -15 -40 -15
l-40 0 0 -78 c0 -86 8 -102 52 -102 18 0 28 -5 28 -15 0 -24 -75 -20 -100 5
-17 17 -20 33 -20 105 0 69 -3 85 -15 85 -8 0 -15 7 -15 15 0 8 7 15 15 15 10
0 15 11 15 35 0 28 4 35 20 35 16 0 20 -7 20 -35z m850 0 c0 -34 1 -35 40 -35
29 0 40 -4 40 -15 0 -11 -11 -15 -40 -15 l-40 0 0 -78 c0 -86 8 -102 52 -102
18 0 28 -5 28 -15 0 -24 -75 -20 -100 5 -17 17 -20 33 -20 105 0 69 -3 85 -15
85 -8 0 -15 7 -15 15 0 8 7 15 15 15 10 0 15 11 15 35 0 28 4 35 20 35 16 0
20 -7 20 -35z m4740 0 c0 -34 1 -35 40 -35 29 0 40 -4 40 -15 0 -11 -11 -15
-40 -15 l-40 0 0 -78 c0 -86 8 -102 52 -102 18 0 28 -5 28 -15 0 -24 -75 -20
-100 5 -17 17 -20 33 -20 105 0 69 -3 85 -15 85 -8 0 -15 7 -15 15 0 8 7 15
15 15 10 0 15 11 15 35 0 28 4 35 20 35 16 0 20 -7 20 -35z m3250 0 c0 -34 1
-35 40 -35 29 0 40 -4 40 -15 0 -11 -11 -15 -40 -15 l-40 0 0 -78 c0 -86 8
-102 52 -102 18 0 28 -5 28 -15 0 -24 -75 -20 -100 5 -17 17 -20 33 -20 105 0
69 -3 85 -15 85 -8 0 -15 7 -15 15 0 8 7 15 15 15 10 0 15 11 15 35 0 28 4 35
20 35 16 0 20 -7 20 -35z m620 0 c0 -34 1 -35 40 -35 29 0 40 -4 40 -15 0 -11
-11 -15 -40 -15 l-40 0 0 -78 c0 -86 8 -102 52 -102 18 0 28 -5 28 -15 0 -24
-75 -20 -100 5 -17 17 -20 33 -20 105 0 69 -3 85 -15 85 -8 0 -15 7 -15 15 0
8 7 15 15 15 10 0 15 11 15 35 0 28 4 35 20 35 16 0 20 -7 20 -35z m1000 0 c0
-34 1 -35 40 -35 29 0 40 -4 40 -15 0 -11 -11 -15 -40 -15 l-40 0 0 -78 c0
-86 8 -102 52 -102 18 0 28 -5 28 -15 0 -24 -75 -20 -100 5 -17 17 -20 33 -20
105 0 69 -3 85 -15 85 -8 0 -15 7 -15 15 0 8 7 15 15 15 10 0 15 11 15 35 0
28 4 35 20 35 16 0 20 -7 20 -35z m-12583 -49 c27 -23 28 -29 31 -125 4 -97 3
-101 -17 -101 -12 0 -21 6 -21 14 0 13 -4 13 -27 0 -67 -34 -133 -5 -133 59 0
49 28 70 100 75 66 5 75 17 39 53 -21 21 -69 23 -111 5 -14 -6 -18 -3 -18 12
0 23 16 29 82 31 36 1 53 -4 75 -23z m262 15 c8 -5 11 -16 8 -25 -5 -13 -11
-15 -26 -6 -29 15 -77 12 -95 -6 -25 -25 -4 -50 54 -64 118 -28 98 -140 -25
-140 -60 0 -85 10 -85 32 0 15 4 18 18 13 57 -22 115 -17 126 11 9 24 -9 41
-52 49 -64 11 -84 30 -80 78 2 33 8 44 28 54 29 15 108 17 129 4z m387 -4 c4
-3 4 -13 0 -22 -4 -12 -10 -14 -25 -5 -60 32 -121 -11 -121 -85 0 -74 61 -117
121 -85 15 9 21 7 25 -5 9 -22 2 -27 -52 -33 -83 -9 -138 40 -138 123 0 82 52
129 137 122 26 -2 50 -7 53 -10z m212 -1 c52 -27 71 -105 43 -174 -37 -88
-174 -78 -200 15 -6 21 -11 43 -11 48 0 6 5 27 11 48 18 65 94 95 157 63z
m292 -6 l21 -21 26 21 c35 27 78 26 108 -5 23 -22 25 -31 25 -125 0 -93 -1
-100 -20 -100 -19 0 -20 7 -20 94 0 73 -4 98 -16 110 -21 22 -50 20 -74 -4
-17 -17 -20 -33 -20 -110 0 -81 -2 -90 -19 -90 -16 0 -19 11 -23 95 -3 54 -11
101 -18 110 -19 23 -56 18 -79 -11 -17 -22 -21 -41 -21 -110 0 -77 -2 -84 -20
-84 -19 0 -20 7 -20 120 0 113 1 120 20 120 11 0 20 -5 20 -11 0 -5 10 -3 22
5 32 22 84 20 108 -4z m435 -2 c52 -45 52 -161 0 -205 -31 -27 -81 -30 -113
-7 l-22 15 0 -60 c0 -54 -2 -61 -20 -61 -19 0 -20 7 -20 165 0 158 1 165 20
165 11 0 20 -5 20 -11 0 -5 10 -3 22 5 32 23 82 20 113 -6z m384 6 c25 -18 51
-71 51 -104 0 -19 -6 -20 -90 -20 -82 0 -90 -2 -90 -19 0 -34 49 -64 95 -58
22 3 48 8 58 12 13 5 17 2 17 -13 0 -42 -132 -43 -176 -1 -55 51 -52 144 7
193 36 31 92 35 128 10z m440 0 c25 -18 51 -71 51 -104 0 -19 -6 -20 -90 -20
-82 0 -90 -2 -90 -19 0 -34 49 -64 95 -58 22 3 48 8 58 12 13 5 17 2 17 -13 0
-42 -132 -43 -176 -1 -54 50 -50 145 7 193 36 31 92 35 128 10z m1130 0 c25
-18 51 -71 51 -104 0 -19 -6 -20 -90 -20 -82 0 -90 -2 -90 -19 0 -34 49 -64
95 -58 22 3 48 8 58 12 13 5 17 2 17 -13 0 -42 -132 -43 -176 -1 -55 51 -52
144 7 193 36 31 92 35 128 10z m410 0 c25 -18 51 -71 51 -104 0 -19 -6 -20
-90 -20 -82 0 -90 -2 -90 -19 0 -34 49 -64 95 -58 22 3 48 8 58 12 13 5 17 2
17 -13 0 -42 -132 -43 -176 -1 -55 51 -52 144 7 193 36 31 92 35 128 10z m518
-8 c27 -23 28 -29 31 -125 4 -97 3 -101 -17 -101 -12 0 -21 6 -21 14 0 13 -4
13 -27 0 -67 -34 -133 -5 -133 59 0 49 28 70 100 75 66 5 75 17 39 53 -21 21
-69 23 -111 5 -14 -6 -18 -3 -18 12 0 23 16 29 82 31 36 1 53 -4 75 -23z m283
4 l21 -21 26 21 c35 27 78 26 108 -5 23 -22 25 -31 25 -125 0 -93 -1 -100 -20
-100 -19 0 -20 7 -20 94 0 73 -4 98 -16 110 -21 22 -50 20 -74 -4 -17 -17 -20
-33 -20 -110 0 -81 -2 -90 -19 -90 -16 0 -19 11 -23 95 -3 54 -11 101 -18 110
-19 23 -56 18 -79 -11 -17 -22 -21 -41 -21 -110 0 -77 -2 -84 -20 -84 -19 0
-20 7 -20 120 0 113 1 120 20 120 11 0 20 -5 20 -11 0 -5 10 -3 22 5 32 22 84
20 108 -4z m530 2 c0 -15 -6 -18 -29 -14 -22 3 -33 -2 -50 -23 -18 -23 -21
-41 -21 -111 0 -77 -2 -84 -20 -84 -19 0 -20 7 -20 120 0 113 1 120 20 120 11
0 20 -4 20 -9 0 -6 12 -3 28 5 39 20 72 18 72 -4z m189 2 c25 -18 51 -71 51
-104 0 -19 -6 -20 -90 -20 -82 0 -90 -2 -90 -19 0 -34 49 -64 95 -58 22 3 48
8 58 12 13 5 17 2 17 -13 0 -42 -132 -43 -176 -1 -55 51 -52 144 7 193 36 31
92 35 128 10z m249 0 c12 -8 22 -10 22 -5 0 6 9 11 20 11 19 0 20 -7 20 -165
0 -158 -1 -165 -20 -165 -18 0 -20 7 -20 61 l0 60 -22 -15 c-83 -59 -179 40
-148 153 19 70 94 103 148 65z m682 -2 c0 -15 -6 -18 -29 -14 -22 3 -33 -2
-50 -23 -18 -23 -21 -41 -21 -111 0 -77 -2 -84 -20 -84 -19 0 -20 7 -20 120 0
113 1 120 20 120 11 0 20 -4 20 -9 0 -6 12 -3 28 5 39 20 72 18 72 -4z m189 2
c25 -18 51 -71 51 -104 0 -19 -6 -20 -90 -20 -82 0 -90 -2 -90 -19 0 -34 49
-64 95 -58 22 3 48 8 58 12 13 5 17 2 17 -13 0 -42 -132 -43 -176 -1 -55 51
-52 144 7 193 36 31 92 35 128 10z m281 -4 l21 -21 26 21 c35 27 78 26 108 -5
23 -22 25 -31 25 -125 0 -93 -1 -100 -20 -100 -19 0 -20 7 -20 94 0 73 -4 98
-16 110 -21 22 -50 20 -74 -4 -17 -17 -20 -33 -20 -110 0 -81 -2 -90 -19 -90
-16 0 -19 11 -23 95 -3 54 -11 101 -18 110 -19 23 -56 18 -79 -11 -17 -22 -21
-41 -21 -110 0 -77 -2 -84 -20 -84 -19 0 -20 7 -20 120 0 113 1 120 20 120 11
0 20 -5 20 -11 0 -5 10 -3 22 5 32 22 84 20 108 -4z m419 4 c25 -18 51 -71 51
-104 0 -19 -6 -20 -90 -20 -82 0 -90 -2 -90 -19 0 -34 49 -64 95 -58 22 3 48
8 58 12 13 5 17 2 17 -13 0 -42 -132 -43 -176 -1 -54 50 -50 145 7 193 36 31
92 35 128 10z m286 -9 c23 -22 25 -31 25 -125 0 -93 -1 -100 -20 -100 -19 0
-20 7 -20 94 0 73 -4 98 -16 110 -23 24 -60 19 -83 -10 -17 -22 -21 -41 -21
-110 0 -77 -2 -84 -20 -84 -19 0 -20 7 -20 120 0 113 1 120 20 120 11 0 20 -4
20 -9 0 -6 12 -3 28 5 41 21 80 17 107 -11z m414 16 c8 -5 11 -16 8 -25 -5
-13 -11 -15 -26 -6 -29 15 -77 12 -95 -6 -25 -25 -4 -50 54 -64 118 -28 98
-140 -25 -140 -60 0 -85 10 -85 32 0 15 4 18 18 13 57 -22 115 -17 126 11 9
24 -9 41 -52 49 -64 11 -84 30 -80 78 2 33 8 44 28 54 29 15 108 17 129 4z
m378 -15 c27 -23 28 -29 31 -125 4 -97 3 -101 -17 -101 -12 0 -21 6 -21 14 0
13 -4 13 -27 0 -67 -34 -133 -5 -133 59 0 49 28 70 100 75 66 5 75 17 39 53
-21 21 -69 23 -111 5 -14 -6 -18 -3 -18 12 0 23 16 29 82 31 36 1 53 -4 75
-23z m288 -1 c23 -22 25 -31 25 -125 0 -93 -1 -100 -20 -100 -19 0 -20 7 -20
94 0 73 -4 98 -16 110 -23 24 -60 19 -83 -10 -17 -22 -21 -41 -21 -110 0 -77
-2 -84 -20 -84 -19 0 -20 7 -20 120 0 113 1 120 20 120 11 0 20 -4 20 -9 0 -6
12 -3 28 5 41 21 80 17 107 -11z m954 9 c25 -18 51 -71 51 -104 0 -19 -6 -20
-90 -20 -82 0 -90 -2 -90 -19 0 -34 49 -64 95 -58 22 3 48 8 58 12 13 5 17 2
17 -13 0 -42 -132 -43 -176 -1 -54 50 -50 145 7 193 36 31 92 35 128 10z m281
-4 l21 -21 26 21 c35 27 78 26 108 -5 23 -22 25 -31 25 -125 0 -93 -1 -100
-20 -100 -19 0 -20 7 -20 94 0 73 -4 98 -16 110 -21 22 -50 20 -74 -4 -17 -17
-20 -33 -20 -110 0 -81 -2 -90 -19 -90 -16 0 -19 11 -23 95 -3 54 -11 101 -18
110 -19 23 -56 18 -79 -11 -17 -22 -21 -41 -21 -110 0 -77 -2 -84 -20 -84 -19
0 -20 7 -20 120 0 113 1 120 20 120 11 0 20 -5 20 -11 0 -5 10 -3 22 5 32 22
84 20 108 -4z m408 6 c52 -27 71 -105 43 -174 -37 -88 -174 -78 -200 15 -6 21
-11 43 -11 48 0 6 5 27 11 48 18 65 94 95 157 63z m287 -11 c23 -22 25 -31 25
-125 0 -93 -1 -100 -20 -100 -19 0 -20 7 -20 94 0 73 -4 98 -16 110 -23 24
-60 19 -83 -10 -17 -22 -21 -41 -21 -110 0 -77 -2 -84 -20 -84 -19 0 -20 7
-20 120 0 113 1 120 20 120 11 0 20 -4 20 -9 0 -6 12 -3 28 5 41 21 80 17 107
-11z m254 16 c8 -5 11 -16 8 -25 -5 -13 -11 -15 -26 -6 -29 15 -77 12 -95 -6
-25 -25 -4 -50 54 -64 118 -28 98 -140 -25 -140 -60 0 -85 10 -85 32 0 15 4
18 18 13 57 -22 115 -17 126 11 9 24 -9 41 -52 49 -64 11 -84 30 -80 78 2 33
8 44 28 54 29 15 108 17 129 4z m391 -9 c0 -15 -6 -18 -29 -14 -22 3 -33 -2
-50 -23 -18 -23 -21 -41 -21 -111 0 -77 -2 -84 -20 -84 -19 0 -20 7 -20 120 0
113 1 120 20 120 11 0 20 -4 20 -9 0 -6 12 -3 28 5 39 20 72 18 72 -4z m197
-6 c27 -23 28 -29 31 -125 4 -97 3 -101 -17 -101 -12 0 -21 6 -21 14 0 13 -4
13 -27 0 -67 -34 -133 -5 -133 59 0 49 28 70 100 75 66 5 75 17 39 53 -21 21
-69 23 -111 5 -14 -6 -18 -3 -18 12 0 23 16 29 82 31 36 1 53 -4 75 -23z m442
8 c25 -18 51 -71 51 -104 0 -19 -6 -20 -90 -20 -82 0 -90 -2 -90 -19 0 -34 49
-64 95 -58 22 3 48 8 58 12 13 5 17 2 17 -13 0 -42 -132 -43 -176 -1 -55 51
-52 144 7 193 36 31 92 35 128 10z m1251 -2 c0 -15 -6 -18 -29 -14 -22 3 -33
-2 -50 -23 -18 -23 -21 -41 -21 -111 0 -77 -2 -84 -20 -84 -19 0 -20 7 -20
120 0 113 1 120 20 120 11 0 20 -4 20 -9 0 -6 12 -3 28 5 39 20 72 18 72 -4z
m178 4 c52 -27 71 -105 43 -174 -37 -88 -174 -78 -200 15 -6 21 -11 43 -11 48
0 6 5 27 11 48 18 65 94 95 157 63z m540 -2 c12 -8 22 -10 22 -5 0 6 9 11 20
11 19 0 20 -7 20 -125 0 -75 -5 -134 -12 -150 -15 -34 -56 -55 -107 -55 -52 0
-71 8 -71 31 0 16 4 17 26 9 14 -6 36 -10 50 -10 30 0 74 41 74 70 0 20 -1 20
-22 6 -83 -59 -179 40 -148 153 19 70 94 103 148 65z m692 -2 c0 -15 -6 -18
-29 -14 -22 3 -33 -2 -50 -23 -18 -23 -21 -41 -21 -111 0 -77 -2 -84 -20 -84
-19 0 -20 7 -20 120 0 113 1 120 20 120 11 0 20 -4 20 -9 0 -6 12 -3 28 5 39
20 72 18 72 -4z m298 2 c12 -8 22 -10 22 -5 0 6 9 11 20 11 19 0 20 -7 20
-125 0 -75 -5 -134 -12 -150 -15 -34 -56 -55 -107 -55 -52 0 -71 8 -71 31 0
16 4 17 26 9 14 -6 36 -10 50 -10 30 0 74 41 74 70 0 20 -1 20 -22 6 -83 -59
-179 40 -148 153 19 70 94 103 148 65z m290 2 c35 -18 52 -51 54 -102 5 -108
-82 -167 -169 -114 -28 17 -53 66 -53 105 0 6 5 27 11 48 18 65 94 95 157 63z
m262 -4 c0 -15 -6 -18 -29 -14 -22 3 -33 -2 -50 -23 -18 -23 -21 -41 -21 -111
0 -77 -2 -84 -20 -84 -19 0 -20 7 -20 120 0 113 1 120 20 120 11 0 20 -4 20
-9 0 -6 12 -3 28 5 39 20 72 18 72 -4z m178 4 c52 -27 71 -105 43 -174 -37
-88 -174 -78 -200 15 -6 21 -11 43 -11 48 0 6 5 27 11 48 18 65 94 95 157 63z
m551 5 c8 -5 11 -16 8 -25 -5 -13 -11 -15 -26 -6 -29 15 -77 12 -95 -6 -25
-25 -4 -50 54 -64 118 -28 98 -140 -25 -140 -60 0 -85 10 -85 32 0 15 4 18 18
13 57 -22 115 -17 126 11 9 24 -9 41 -52 49 -64 11 -84 30 -80 78 2 33 8 44
28 54 29 15 108 17 129 4z m-12002 -41 c15 -22 31 -40 34 -40 4 0 19 18 34 40
19 28 35 40 52 40 l24 0 -33 -45 c-18 -25 -37 -52 -42 -59 -7 -10 2 -30 32
-70 23 -30 42 -58 42 -61 0 -3 -9 -5 -20 -5 -11 0 -33 18 -52 45 -18 24 -35
44 -38 44 -3 0 -20 -20 -38 -44 -19 -27 -41 -45 -52 -45 -11 0 -20 2 -20 5 0
3 18 30 40 59 22 29 40 56 40 61 0 5 -18 32 -40 62 -40 52 -40 53 -16 53 17 0
33 -12 53 -40z m1793 -49 c0 -98 11 -121 55 -121 44 0 65 43 65 131 0 72 2 79
20 79 19 0 20 -7 20 -120 0 -113 -1 -120 -20 -120 -11 0 -20 6 -20 14 0 13 -4
13 -27 0 -42 -21 -81 -17 -108 11 -23 22 -25 32 -25 120 0 88 1 95 20 95 19 0
20 -7 20 -89z m280 -31 c0 -113 -1 -120 -20 -120 -19 0 -20 7 -20 120 0 113 1
120 20 120 19 0 20 -7 20 -120z m7280 31 c0 -98 11 -121 55 -121 44 0 65 43
65 131 0 72 2 79 20 79 19 0 20 -7 20 -120 0 -113 -1 -120 -20 -120 -11 0 -20
6 -20 14 0 13 -4 13 -27 0 -42 -21 -81 -17 -108 11 -23 22 -25 32 -25 120 0
88 1 95 20 95 19 0 20 -7 20 -89z m1150 -31 c0 -113 -1 -120 -20 -120 -19 0
-20 7 -20 120 0 113 1 120 20 120 19 0 20 -7 20 -120z m1110 31 c0 -98 11
-121 55 -121 44 0 65 43 65 131 0 72 2 79 20 79 19 0 20 -7 20 -120 0 -113 -1
-120 -20 -120 -11 0 -20 6 -20 14 0 13 -4 13 -27 0 -42 -21 -81 -17 -108 11
-23 22 -25 32 -25 120 0 88 1 95 20 95 19 0 20 -7 20 -89z m-3400 -116 c0 -25
-39 -95 -53 -95 -10 0 -11 12 -3 55 9 48 13 55 33 55 14 0 23 -6 23 -15z
m-9680 -479 l0 -55 28 15 c41 21 80 17 107 -11 23 -22 25 -31 25 -125 0 -93
-1 -100 -20 -100 -19 0 -20 7 -20 94 0 73 -4 98 -16 110 -23 24 -60 19 -83
-10 -17 -22 -21 -41 -21 -110 0 -77 -2 -84 -20 -84 -19 0 -20 7 -20 165 0 158
1 165 20 165 18 0 20 -7 20 -54z m690 -42 l0 -96 60 52 c41 35 66 50 82 48 19
-3 14 -10 -40 -57 l-62 -53 67 -64 c62 -57 66 -63 42 -64 -17 0 -45 18 -87 56
l-62 56 0 -56 c0 -49 -2 -56 -20 -56 -19 0 -20 7 -20 165 0 158 1 165 20 165
19 0 20 -7 20 -96z m1160 -69 c0 -158 -1 -165 -20 -165 -19 0 -20 7 -20 165 0
158 1 165 20 165 19 0 20 -7 20 -165z m550 0 c0 -158 -1 -165 -20 -165 -11 0
-20 7 -20 16 0 14 -2 14 -22 0 -54 -38 -129 -5 -148 65 -31 113 65 212 148
153 22 -15 22 -15 22 40 0 49 2 56 20 56 19 0 20 -7 20 -165z m1510 0 c0 -158
-1 -165 -20 -165 -11 0 -20 7 -20 16 0 14 -2 14 -22 0 -54 -38 -129 -5 -148
65 -31 113 65 212 148 153 22 -15 22 -15 22 40 0 49 2 56 20 56 19 0 20 -7 20
-165z m1390 140 c0 -18 -5 -25 -20 -25 -15 0 -20 7 -20 25 0 18 5 25 20 25 15
0 20 -7 20 -25z m630 -140 c0 -158 -1 -165 -20 -165 -19 0 -20 7 -20 165 0
158 1 165 20 165 19 0 20 -7 20 -165z m490 69 l0 -96 60 52 c41 35 66 50 82
48 19 -3 14 -10 -40 -57 l-62 -53 67 -64 c62 -57 66 -63 42 -64 -17 0 -45 18
-87 56 l-62 56 0 -56 c0 -49 -2 -56 -20 -56 -19 0 -20 7 -20 165 0 158 1 165
20 165 19 0 20 -7 20 -96z m250 71 c0 -18 -5 -25 -20 -25 -15 0 -20 7 -20 25
0 18 5 25 20 25 15 0 20 -7 20 -25z m120 -140 c0 -158 -1 -165 -20 -165 -19 0
-20 7 -20 165 0 158 1 165 20 165 19 0 20 -7 20 -165z m130 0 c0 -158 -1 -165
-20 -165 -19 0 -20 7 -20 165 0 158 1 165 20 165 19 0 20 -7 20 -165z m1480
140 c0 -18 -5 -25 -20 -25 -15 0 -20 7 -20 25 0 18 5 25 20 25 15 0 20 -7 20
-25z m720 -140 c0 -158 -1 -165 -20 -165 -11 0 -20 7 -20 16 0 14 -2 14 -22 0
-54 -38 -129 -5 -148 65 -31 113 65 212 148 153 22 -15 22 -15 22 40 0 49 2
56 20 56 19 0 20 -7 20 -165z m1860 0 c0 -158 -1 -165 -20 -165 -19 0 -20 7
-20 165 0 158 1 165 20 165 19 0 20 -7 20 -165z m2120 135 c0 -28 -3 -30 -35
-30 -32 0 -35 2 -35 30 0 28 3 30 35 30 32 0 35 -2 35 -30z m-780 -142 c0
-144 -2 -167 -20 -195 -11 -18 -30 -35 -45 -38 -81 -17 -75 -18 -75 15 0 23 5
30 19 30 40 0 46 25 46 192 l0 158 38 0 37 0 0 -162z m-12940 117 c0 -34 1
-35 40 -35 29 0 40 -4 40 -15 0 -11 -11 -15 -40 -15 l-40 0 0 -78 c0 -86 8
-102 52 -102 18 0 28 -5 28 -15 0 -24 -75 -20 -100 5 -17 17 -20 33 -20 105 0
69 -3 85 -15 85 -8 0 -15 7 -15 15 0 8 7 15 15 15 10 0 15 11 15 35 0 28 4 35
20 35 16 0 20 -7 20 -35z m450 0 c0 -34 1 -35 40 -35 29 0 40 -4 40 -15 0 -11
-11 -15 -40 -15 l-40 0 0 -78 c0 -86 8 -102 52 -102 18 0 28 -5 28 -15 0 -24
-75 -20 -100 5 -17 17 -20 33 -20 105 0 69 -3 85 -15 85 -8 0 -15 7 -15 15 0
8 7 15 15 15 10 0 15 11 15 35 0 28 4 35 20 35 16 0 20 -7 20 -35z m5300 0 c0
-34 1 -35 40 -35 29 0 40 -4 40 -15 0 -11 -11 -15 -40 -15 l-40 0 0 -78 c0
-86 8 -102 52 -102 18 0 28 -5 28 -15 0 -24 -75 -20 -100 5 -17 17 -20 33 -20
105 0 69 -3 85 -15 85 -8 0 -15 7 -15 15 0 8 7 15 15 15 10 0 15 11 15 35 0
28 4 35 20 35 16 0 20 -7 20 -35z m4250 0 c0 -34 1 -35 40 -35 29 0 40 -4 40
-15 0 -11 -11 -15 -40 -15 l-40 0 0 -78 c0 -86 8 -102 52 -102 18 0 28 -5 28
-15 0 -24 -75 -20 -100 5 -17 17 -20 33 -20 105 0 69 -3 85 -15 85 -8 0 -15 7
-15 15 0 8 7 15 15 15 10 0 15 11 15 35 0 28 4 35 20 35 16 0 20 -7 20 -35z
m-12303 -49 c27 -23 28 -29 31 -125 4 -97 3 -101 -17 -101 -12 0 -21 6 -21 14
0 13 -4 13 -27 0 -67 -34 -133 -5 -133 59 0 49 28 70 100 75 66 5 75 17 39 53
-21 21 -69 23 -111 5 -14 -6 -18 -3 -18 12 0 23 16 29 82 31 36 1 53 -4 75
-23z m262 15 c8 -5 11 -16 8 -25 -5 -13 -11 -15 -26 -6 -29 15 -77 12 -95 -6
-25 -25 -4 -50 54 -64 118 -28 98 -140 -25 -140 -60 0 -85 10 -85 32 0 15 4
18 18 13 57 -22 115 -17 126 11 9 24 -9 41 -52 49 -64 11 -84 30 -80 78 2 33
8 44 28 54 29 15 108 17 129 4z m230 0 c8 -5 11 -16 8 -25 -5 -13 -11 -15 -26
-6 -29 15 -77 12 -95 -6 -25 -25 -4 -50 54 -64 118 -28 98 -140 -25 -140 -60
0 -85 10 -85 32 0 15 4 18 18 13 57 -22 115 -17 126 11 9 24 -9 41 -52 49 -64
11 -84 30 -80 78 2 33 8 44 28 54 29 15 108 17 129 4z m240 -7 c25 -18 51 -71
51 -104 0 -19 -6 -20 -90 -20 -82 0 -90 -2 -90 -19 0 -34 49 -64 95 -58 22 3
48 8 58 12 13 5 17 2 17 -13 0 -42 -132 -43 -176 -1 -55 51 -52 144 7 193 36
31 92 35 128 10z m250 7 c8 -5 11 -16 8 -25 -5 -13 -11 -15 -26 -6 -29 15 -77
12 -95 -6 -25 -25 -4 -50 54 -64 118 -28 98 -140 -25 -140 -60 0 -85 10 -85
32 0 15 4 18 18 13 57 -22 115 -17 126 11 9 24 -9 41 -52 49 -64 11 -84 30
-80 78 2 33 8 44 28 54 29 15 108 17 129 4z m230 0 c8 -5 11 -16 8 -25 -5 -13
-11 -15 -26 -6 -29 15 -77 12 -95 -6 -25 -25 -4 -50 54 -64 118 -28 98 -140
-25 -140 -60 0 -85 10 -85 32 0 15 4 18 18 13 57 -22 115 -17 126 11 9 24 -9
41 -52 49 -64 11 -84 30 -80 78 2 33 8 44 28 54 29 15 108 17 129 4z m251 -11
l21 -21 26 21 c35 27 78 26 108 -5 23 -22 25 -31 25 -125 0 -93 -1 -100 -20
-100 -19 0 -20 7 -20 94 0 73 -4 98 -16 110 -21 22 -50 20 -74 -4 -17 -17 -20
-33 -20 -110 0 -81 -2 -90 -19 -90 -16 0 -19 11 -23 95 -3 54 -11 101 -18 110
-19 23 -56 18 -79 -11 -17 -22 -21 -41 -21 -110 0 -77 -2 -84 -20 -84 -19 0
-20 7 -20 120 0 113 1 120 20 120 11 0 20 -5 20 -11 0 -5 10 -3 22 5 32 22 84
20 108 -4z m419 4 c25 -18 51 -71 51 -104 0 -19 -6 -20 -90 -20 -82 0 -90 -2
-90 -19 0 -34 49 -64 95 -58 22 3 48 8 58 12 13 5 17 2 17 -13 0 -42 -132 -43
-176 -1 -55 51 -52 144 7 193 36 31 92 35 128 10z m286 -9 c23 -22 25 -31 25
-125 0 -93 -1 -100 -20 -100 -19 0 -20 7 -20 94 0 73 -4 98 -16 110 -23 24
-60 19 -83 -10 -17 -22 -21 -41 -21 -110 0 -77 -2 -84 -20 -84 -19 0 -20 7
-20 120 0 113 1 120 20 120 11 0 20 -4 20 -9 0 -6 12 -3 28 5 41 21 80 17 107
-11z m1154 9 c25 -18 51 -71 51 -104 0 -19 -6 -20 -90 -20 -82 0 -90 -2 -90
-19 0 -34 49 -64 95 -58 22 3 48 8 58 12 13 5 17 2 17 -13 0 -42 -132 -43
-176 -1 -55 51 -52 144 7 193 36 31 92 35 128 10z m676 -9 c23 -22 25 -31 25
-125 0 -93 -1 -100 -20 -100 -19 0 -20 7 -20 94 0 73 -4 98 -16 110 -23 24
-60 19 -83 -10 -17 -22 -21 -41 -21 -110 0 -77 -2 -84 -20 -84 -19 0 -20 7
-20 120 0 113 1 120 20 120 11 0 20 -4 20 -9 0 -6 12 -3 28 5 41 21 80 17 107
-11z m253 11 c35 -18 54 -54 56 -103 2 -104 -79 -162 -164 -118 -33 17 -44 35
-54 84 -20 106 72 183 162 137z m761 -2 c25 -18 51 -71 51 -104 0 -19 -6 -20
-90 -20 -82 0 -90 -2 -90 -19 0 -34 49 -64 95 -58 22 3 48 8 58 12 13 5 17 2
17 -13 0 -42 -132 -43 -176 -1 -54 50 -50 145 7 193 36 31 92 35 128 10z m519
0 c12 -8 22 -10 22 -5 0 6 9 11 20 11 19 0 20 -7 20 -125 0 -75 -5 -134 -12
-150 -15 -34 -56 -55 -107 -55 -52 0 -71 8 -71 31 0 16 4 17 26 9 14 -6 36
-10 50 -10 30 0 74 41 74 70 0 20 -1 20 -22 6 -83 -59 -179 40 -148 153 19 70
94 103 148 65z m301 0 c25 -18 51 -71 51 -104 0 -19 -6 -20 -90 -20 -82 0 -90
-2 -90 -19 0 -34 49 -64 95 -58 22 3 48 8 58 12 13 5 17 2 17 -13 0 -42 -132
-43 -176 -1 -55 51 -52 144 7 193 36 31 92 35 128 10z m408 -8 c27 -23 28 -29
31 -125 4 -97 3 -101 -17 -101 -12 0 -21 6 -21 14 0 13 -4 13 -27 0 -67 -34
-133 -5 -133 59 0 49 28 70 100 75 66 5 75 17 39 53 -21 21 -69 23 -111 5 -14
-6 -18 -3 -18 12 0 23 16 29 82 31 36 1 53 -4 75 -23z m288 -1 c23 -22 25 -31
25 -125 0 -93 -1 -100 -20 -100 -19 0 -20 7 -20 94 0 73 -4 98 -16 110 -23 24
-60 19 -83 -10 -17 -22 -21 -41 -21 -110 0 -77 -2 -84 -20 -84 -19 0 -20 7
-20 120 0 113 1 120 20 120 11 0 20 -4 20 -9 0 -6 12 -3 28 5 41 21 80 17 107
-11z m690 3 c52 -45 52 -161 0 -205 -31 -27 -81 -30 -113 -7 l-22 15 0 -60 c0
-54 -2 -61 -20 -61 -19 0 -20 7 -20 165 0 158 1 165 20 165 11 0 20 -5 20 -11
0 -5 10 -3 22 5 32 23 82 20 113 -6z m245 4 c0 -15 -6 -18 -29 -14 -22 3 -33
-2 -50 -23 -18 -23 -21 -41 -21 -111 0 -77 -2 -84 -20 -84 -19 0 -20 7 -20
120 0 113 1 120 20 120 11 0 20 -5 20 -11 0 -5 10 -3 22 5 32 23 78 21 78 -2z
m197 -6 c27 -23 28 -29 31 -125 4 -97 3 -101 -17 -101 -12 0 -21 6 -21 14 0
13 -4 13 -27 0 -67 -34 -133 -5 -133 59 0 49 28 70 100 75 66 5 75 17 39 53
-21 21 -69 23 -111 5 -14 -6 -18 -3 -18 12 0 23 16 29 82 31 36 1 53 -4 75
-23z m289 11 c4 -3 4 -13 0 -22 -4 -12 -10 -14 -25 -5 -60 32 -121 -11 -121
-85 0 -74 61 -117 121 -85 15 9 21 7 25 -5 9 -22 2 -27 -52 -33 -83 -9 -138
40 -138 123 0 82 52 129 137 122 26 -2 50 -7 53 -10z m530 0 c4 -3 4 -13 0
-22 -4 -12 -10 -14 -25 -5 -60 32 -121 -11 -121 -85 0 -74 61 -117 121 -85 15
9 21 7 25 -5 9 -22 2 -27 -52 -33 -83 -9 -138 40 -138 123 0 82 52 129 137
122 26 -2 50 -7 53 -10z m221 -11 c27 -23 28 -29 31 -125 4 -97 3 -101 -17
-101 -12 0 -21 6 -21 14 0 13 -4 13 -27 0 -67 -34 -133 -5 -133 59 0 49 28 70
100 75 66 5 75 17 39 53 -21 21 -69 23 -111 5 -14 -6 -18 -3 -18 12 0 23 16
29 82 31 36 1 53 -4 75 -23z m522 15 c8 -5 11 -16 8 -25 -5 -13 -11 -15 -26
-6 -29 15 -77 12 -95 -6 -25 -25 -4 -50 54 -64 118 -28 98 -140 -25 -140 -60
0 -85 10 -85 32 0 15 4 18 18 13 57 -22 115 -17 126 11 9 24 -9 41 -52 49 -64
11 -84 30 -80 78 2 33 8 44 28 54 29 15 108 17 129 4z m850 0 c8 -5 11 -16 8
-25 -5 -13 -11 -15 -26 -6 -29 15 -77 12 -95 -6 -25 -25 -4 -50 54 -64 118
-28 98 -140 -25 -140 -60 0 -85 10 -85 32 0 15 4 18 18 13 57 -22 115 -17 126
11 9 24 -9 41 -52 49 -64 11 -84 30 -80 78 2 33 8 44 28 54 29 15 108 17 129
4z m351 -9 c0 -15 -6 -18 -29 -14 -22 3 -33 -2 -50 -23 -18 -23 -21 -41 -21
-111 0 -77 -2 -84 -20 -84 -19 0 -20 7 -20 120 0 113 1 120 20 120 11 0 20 -5
20 -11 0 -5 10 -3 22 5 32 23 78 21 78 -2z m189 2 c25 -18 51 -71 51 -104 0
-19 -6 -20 -90 -20 -82 0 -90 -2 -90 -19 0 -34 49 -64 95 -58 22 3 48 8 58 12
13 5 17 2 17 -13 0 -42 -132 -43 -176 -1 -54 50 -50 145 7 193 36 31 92 35
128 10z m249 0 c12 -8 22 -10 22 -5 0 6 9 11 20 11 19 0 20 -7 20 -165 0 -158
-1 -165 -20 -165 -18 0 -20 7 -20 61 l0 60 -22 -15 c-83 -59 -179 40 -148 153
19 70 94 103 148 65z m682 -2 c0 -15 -6 -18 -29 -14 -22 3 -33 -2 -50 -23 -18
-23 -21 -41 -21 -111 0 -77 -2 -84 -20 -84 -19 0 -20 7 -20 120 0 113 1 120
20 120 11 0 20 -5 20 -11 0 -5 10 -3 22 5 32 23 78 21 78 -2z m189 2 c25 -18
51 -71 51 -104 0 -19 -6 -20 -90 -20 -82 0 -90 -2 -90 -19 0 -34 49 -64 95
-58 22 3 48 8 58 12 13 5 17 2 17 -13 0 -42 -132 -43 -176 -1 -54 50 -50 145
7 193 36 31 92 35 128 10z m849 2 c52 -27 71 -105 43 -174 -37 -88 -174 -78
-200 15 -6 21 -11 43 -11 48 0 6 5 27 11 48 18 65 94 95 157 63z m411 -2 c25
-18 51 -71 51 -104 0 -19 -6 -20 -90 -20 -82 0 -90 -2 -90 -19 0 -34 49 -64
95 -58 22 3 48 8 58 12 13 5 17 2 17 -13 0 -42 -132 -43 -176 -1 -55 51 -52
144 7 193 36 31 92 35 128 10z m537 3 c4 -3 4 -13 0 -22 -4 -12 -10 -14 -25
-5 -60 32 -121 -11 -121 -85 0 -74 61 -117 121 -85 15 9 21 7 25 -5 9 -22 2
-27 -52 -33 -83 -9 -138 40 -138 123 0 82 52 129 137 122 26 -2 50 -7 53 -10z
m223 -3 c25 -18 51 -71 51 -104 0 -19 -6 -20 -90 -20 -82 0 -90 -2 -90 -19 0
-34 49 -64 95 -58 22 3 48 8 58 12 13 5 17 2 17 -13 0 -42 -132 -43 -176 -1
-55 51 -52 144 7 193 36 31 92 35 128 10z m528 -8 c27 -23 28 -29 31 -125 4
-97 3 -101 -17 -101 -12 0 -21 6 -21 14 0 13 -4 13 -27 0 -67 -34 -133 -5
-133 59 0 49 28 70 100 75 66 5 75 17 39 53 -21 21 -69 23 -111 5 -14 -6 -18
-3 -18 12 0 23 16 29 82 31 36 1 53 -4 75 -23z m262 15 c8 -5 11 -16 8 -25 -5
-13 -11 -15 -26 -6 -29 15 -77 12 -95 -6 -25 -25 -4 -50 54 -64 118 -28 98
-140 -25 -140 -60 0 -85 10 -85 32 0 15 4 18 18 13 57 -22 115 -17 126 11 9
24 -9 41 -52 49 -64 11 -84 30 -80 78 2 33 8 44 28 54 29 15 108 17 129 4z
m368 -15 c27 -23 28 -29 31 -125 4 -97 3 -101 -17 -101 -12 0 -21 6 -21 14 0
13 -4 13 -27 0 -67 -34 -133 -5 -133 59 0 49 28 70 100 75 66 5 75 17 39 53
-21 21 -69 23 -111 5 -14 -6 -18 -3 -18 12 0 23 16 29 82 31 36 1 53 -4 75
-23z m938 -9 c11 -15 15 -49 15 -119 l0 -98 -30 0 -30 0 0 69 c0 94 -11 121
-49 121 -41 0 -51 -23 -51 -114 l0 -76 -35 0 -35 0 0 120 0 120 35 0 c24 0 35
-5 35 -15 0 -19 14 -19 30 -1 24 30 92 25 115 -7z m462 -12 c62 -72 30 -174
-61 -195 -43 -10 -100 2 -127 26 -45 41 -45 138 1 179 45 41 149 35 187 -10z
m263 9 c0 -21 -5 -24 -34 -24 -51 0 -66 -28 -66 -117 l0 -73 -35 0 -35 0 0
120 0 120 35 0 c29 0 35 -4 35 -22 l0 -21 23 20 c22 21 55 33 70 26 4 -2 7
-15 7 -29z m-12171 -11 c6 -20 16 -61 22 -90 14 -63 20 -57 45 50 16 72 19 77
44 77 25 0 28 -5 44 -77 25 -107 31 -113 45 -50 24 111 31 127 51 127 24 0 24
6 1 -82 -11 -40 -25 -92 -31 -115 -9 -36 -15 -43 -35 -43 -26 0 -30 10 -56
127 -7 29 -15 53 -19 53 -4 0 -12 -24 -19 -53 -26 -117 -30 -127 -56 -127 -20
0 -26 7 -35 43 -6 23 -20 74 -31 113 -23 86 -23 84 1 84 14 0 22 -10 29 -37z
m3821 -83 c0 -113 -1 -120 -20 -120 -19 0 -20 7 -20 120 0 113 1 120 20 120
19 0 20 -7 20 -120z m1370 0 c0 -113 -1 -120 -20 -120 -19 0 -20 7 -20 120 0
113 1 120 20 120 19 0 20 -7 20 -120z m1450 31 c0 -98 11 -121 55 -121 44 0
65 43 65 131 0 72 2 79 20 79 19 0 20 -7 20 -120 0 -113 -1 -120 -20 -120 -11
0 -20 6 -20 14 0 13 -4 13 -27 0 -42 -21 -81 -17 -108 11 -23 22 -25 32 -25
120 0 88 1 95 20 95 19 0 20 -7 20 -89z m280 -31 c0 -113 -1 -120 -20 -120
-19 0 -20 7 -20 120 0 113 1 120 20 120 19 0 20 -7 20 -120z m1837 80 c15 -22
31 -40 34 -40 4 0 19 18 34 40 19 28 35 40 52 40 l24 0 -33 -45 c-18 -25 -37
-52 -42 -59 -7 -10 2 -30 32 -70 23 -30 42 -58 42 -61 0 -3 -9 -5 -20 -5 -11
0 -33 18 -52 45 -18 24 -35 44 -38 44 -3 0 -20 -20 -38 -44 -19 -27 -41 -45
-52 -45 -11 0 -20 2 -20 5 0 3 18 30 40 59 22 29 40 56 40 61 0 5 -18 32 -40
62 -40 52 -40 53 -16 53 17 0 33 -12 53 -40z m2235 -47 l3 -88 28 -3 c47 -6
57 12 57 99 l0 79 35 0 35 0 0 -120 0 -120 -35 0 c-29 0 -35 4 -35 21 0 19 -1
19 -22 5 -23 -17 -85 -21 -104 -8 -24 16 -34 55 -34 136 l0 86 35 0 34 0 3
-87z m628 -33 l0 -120 -35 0 -35 0 0 120 0 120 35 0 35 0 0 -120z m-13530 -85
c0 -25 -39 -95 -53 -95 -10 0 -11 12 -3 55 9 48 13 55 33 55 14 0 23 -6 23
-15z m-420 -455 c0 -28 -3 -30 -35 -30 -32 0 -35 2 -35 30 0 28 3 30 35 30 32
0 35 -2 35 -30z m2607 -17 c-18 -39 -22 -66 -22 -148 0 -82 4 -109 22 -147
l22 -48 -28 0 c-25 0 -32 7 -57 63 -39 87 -39 177 0 265 25 55 32 62 57 62
l28 0 -22 -47z m1119 -15 c23 -50 29 -77 29 -133 0 -56 -6 -83 -29 -132 -25
-55 -32 -63 -56 -63 l-28 0 24 58 c18 44 24 76 24 137 0 61 -6 93 -24 138
l-24 57 28 0 c24 0 31 -8 56 -62z m-5786 43 c87 -17 120 -103 62 -161 -22 -22
-41 -29 -90 -35 l-62 -7 0 -54 0 -54 -37 0 -38 0 0 160 0 160 60 0 c33 -1 80
-5 105 -9z m3150 -21 c0 -29 -1 -30 -50 -30 l-50 0 0 -130 0 -130 -40 0 -40 0
0 130 0 130 -50 0 c-49 0 -50 1 -50 30 l0 30 140 0 140 0 0 -30z m1790 21 c87
-17 120 -103 62 -161 -22 -22 -41 -29 -90 -35 l-62 -7 0 -54 0 -54 -37 0 -38
0 0 160 0 160 60 0 c33 -1 80 -5 105 -9z m400 -21 c0 -29 -1 -30 -50 -30 l-50
0 0 -130 0 -130 -40 0 -40 0 0 130 0 130 -50 0 c-49 0 -50 1 -50 30 l0 30 140
0 140 0 0 -30z m210 -100 l0 -130 35 0 c32 0 35 -2 35 -30 l0 -30 -105 0 -105
0 0 30 c0 28 3 30 35 30 l35 0 0 101 0 101 -40 -7 c-37 -6 -40 -5 -40 17 0 20
7 27 38 35 20 6 54 11 75 12 l37 1 0 -130z m-4410 85 c0 -34 1 -35 40 -35 38
0 40 -2 40 -30 0 -28 -2 -30 -40 -30 l-40 0 0 -60 0 -60 35 0 c32 0 35 -2 35
-30 0 -26 -4 -30 -28 -30 -38 0 -94 17 -104 32 -4 7 -8 43 -8 81 0 60 -2 67
-20 67 -16 0 -20 7 -20 30 0 23 4 30 20 30 16 0 20 7 20 35 0 33 2 35 35 35
33 0 35 -2 35 -35z m720 0 c0 -34 1 -35 40 -35 38 0 40 -2 40 -30 0 -28 -2
-30 -40 -30 l-40 0 0 -60 0 -60 35 0 c32 0 35 -2 35 -30 0 -26 -4 -30 -28 -30
-38 0 -94 17 -104 32 -4 7 -8 43 -8 81 0 60 -2 67 -20 67 -16 0 -20 7 -20 30
0 23 4 30 20 30 16 0 20 7 20 35 0 33 2 35 35 35 33 0 35 -2 35 -35z m1920 0
c0 -34 1 -35 40 -35 38 0 40 -2 40 -30 0 -28 -2 -30 -40 -30 l-40 0 0 -60 0
-60 35 0 c32 0 35 -2 35 -30 0 -26 -4 -30 -28 -30 -38 0 -94 17 -104 32 -4 7
-8 43 -8 81 0 60 -2 67 -20 67 -16 0 -20 7 -20 30 0 23 4 30 20 30 16 0 20 7
20 35 0 33 2 35 35 35 33 0 35 -2 35 -35z m-3449 -50 c27 -18 49 -59 49 -92
l0 -33 -91 0 -91 0 14 -22 c18 -26 81 -36 129 -19 27 9 29 8 29 -14 0 -18 -7
-25 -32 -31 -58 -13 -130 -6 -157 14 -54 40 -60 143 -11 187 35 32 119 37 161
10z m334 -8 c11 -15 15 -49 15 -119 l0 -98 -30 0 -30 0 0 69 c0 94 -11 121
-49 121 -41 0 -51 -23 -51 -114 l0 -76 -35 0 -35 0 0 120 0 120 35 0 c24 0 35
-5 35 -15 0 -19 14 -19 30 -1 24 30 92 25 115 -7z m276 8 c27 -18 49 -59 49
-92 l0 -33 -91 0 -91 0 14 -22 c18 -26 81 -36 129 -19 27 9 29 8 29 -14 0 -18
-7 -25 -32 -31 -58 -13 -130 -6 -157 14 -54 40 -60 143 -11 187 35 32 119 37
161 10z m499 -11 c0 -21 -5 -24 -34 -24 -51 0 -66 -28 -66 -117 l0 -73 -35 0
-35 0 0 120 0 120 35 0 c29 0 35 -4 35 -22 l0 -21 23 20 c22 21 55 33 70 26 4
-2 7 -15 7 -29z m218 9 c32 -20 42 -53 42 -144 l0 -79 -35 0 c-28 0 -35 4 -35
20 0 24 -8 25 -31 4 -10 -9 -35 -16 -56 -16 -72 0 -106 78 -53 124 11 9 47 19
80 23 33 4 60 10 60 15 0 22 -33 32 -90 28 -57 -4 -60 -3 -60 18 0 20 6 23 48
26 62 5 102 -1 130 -19z m691 -18 c22 -21 26 -35 26 -80 0 -45 -4 -59 -26 -80
-46 -47 -143 -51 -190 -9 -44 40 -43 139 1 179 45 40 144 35 189 -10z m306 12
c11 -15 15 -49 15 -119 l0 -98 -30 0 -30 0 0 69 c0 94 -11 121 -49 121 -41 0
-51 -23 -51 -114 l0 -76 -35 0 -35 0 0 120 0 120 35 0 c24 0 35 -5 35 -15 0
-19 14 -19 30 -1 24 30 92 25 115 -7z m663 10 c29 -14 52 -56 52 -97 l0 -30
-91 0 -91 0 14 -22 c18 -26 81 -36 129 -19 27 9 29 8 29 -15 0 -13 -3 -24 -7
-24 -5 -1 -27 -5 -51 -9 -50 -10 -118 3 -144 26 -43 39 -42 139 2 178 35 32
107 37 158 12z m268 13 c29 0 34 -3 34 -23 0 -22 -3 -23 -65 -19 -61 4 -65 3
-65 -17 0 -14 8 -22 28 -26 82 -17 103 -27 113 -52 26 -68 -24 -99 -153 -95
-43 2 -48 5 -48 25 0 21 4 22 67 22 61 0 68 2 68 20 0 15 -9 21 -44 27 -65 11
-91 32 -91 72 0 18 7 39 15 46 18 15 75 30 93 24 8 -2 29 -4 48 -4z m505 -15
c27 -18 49 -59 49 -92 l0 -33 -91 0 -91 0 14 -22 c18 -26 81 -36 129 -19 27 9
29 8 29 -14 0 -27 -33 -38 -107 -37 -58 0 -95 21 -117 65 -22 46 -16 95 18
133 33 40 119 49 167 19z m279 -11 c0 -21 -5 -24 -34 -24 -51 0 -66 -28 -66
-117 l0 -73 -35 0 -35 0 0 120 0 120 35 0 c29 0 35 -4 35 -22 l0 -21 23 20
c22 21 55 33 70 26 4 -2 7 -15 7 -29z m-2310 -94 l0 -120 -35 0 -35 0 0 120 0
120 35 0 35 0 0 -120z m3890 -95 c0 -18 -5 -25 -20 -25 -15 0 -20 7 -20 25 0
18 5 25 20 25 15 0 20 -7 20 -25z m15656 -1050 c38 -77 155 -306 258 -508 211
-413 183 -381 283 -325 69 39 137 101 216 196 58 70 136 182 166 240 13 24 31
30 31 9 0 -7 -27 -54 -59 -104 -133 -205 -254 -332 -368 -384 -35 -16 -63 -33
-63 -37 0 -4 29 -70 64 -147 95 -209 134 -325 108 -325 -15 0 -32 24 -32 47 0
27 -32 125 -67 203 -74 167 -88 196 -96 208 -5 7 -31 12 -59 12 -60 0 -112 23
-140 61 -12 16 -25 26 -29 23 -4 -2 -11 -30 -15 -61 -5 -44 -14 -64 -35 -85
-32 -32 -50 -34 -115 -12 -38 13 -58 14 -108 5 -33 -6 -78 -13 -99 -16 -32 -5
-36 -9 -32 -28 7 -32 -19 -122 -36 -123 -8 0 -27 -7 -44 -13 -46 -20 -217 -19
-318 2 -173 35 -257 70 -257 106 0 27 21 40 86 52 57 11 91 13 387 17 l137 2
0 35 c0 61 -140 308 -255 450 -18 22 -40 55 -49 73 -16 31 -16 36 -1 58 13 20
24 24 63 24 54 -1 217 -41 234 -58 16 -16 -16 -15 -117 3 -102 19 -145 19
-145 2 0 -8 43 -78 96 -158 53 -79 116 -184 140 -234 25 -53 45 -84 48 -75 13
37 22 187 13 220 -14 54 -4 146 20 172 21 24 40 150 63 428 6 69 13 140 16
158 9 61 35 35 110 -113z m5398 16 c59 -19 80 -46 100 -125 17 -63 12 -82 -28
-122 -12 -11 -30 -31 -41 -45 -12 -13 -34 -34 -50 -46 -25 -18 -27 -23 -16
-37 7 -9 18 -16 24 -16 13 0 80 -44 119 -79 25 -22 51 -39 86 -57 7 -3 68 17
135 45 67 28 126 51 130 51 4 0 7 -9 7 -19 0 -19 -49 -44 -203 -101 -49 -19
-57 -25 -51 -42 13 -41 -4 -66 -64 -94 -74 -37 -51 -40 97 -15 118 20 171 41
325 130 134 76 218 179 232 284 7 52 22 62 59 43 35 -19 51 -42 71 -104 25
-78 10 -115 -83 -199 -108 -99 -123 -129 -124 -244 -1 -136 -14 -196 -53 -232
-50 -47 -116 -86 -181 -107 -33 -11 -90 -31 -127 -44 -105 -39 -280 -66 -432
-66 -117 0 -137 3 -182 24 -62 29 -89 62 -110 133 -15 52 -15 58 6 136 12 45
31 94 41 109 24 33 24 34 -2 41 -15 4 -20 12 -17 29 3 20 11 24 63 31 45 6
103 29 233 93 94 47 172 87 172 88 0 14 -127 96 -170 110 -96 32 -100 34 -100
58 0 16 19 39 60 72 33 28 60 53 60 57 0 5 17 24 37 44 l37 36 -20 57 c-18 51
-25 59 -60 71 -49 17 -140 16 -183 -2 -30 -13 -80 -76 -168 -211 -14 -22 -55
-80 -90 -129 -99 -136 -174 -249 -185 -277 l-9 -24 22 19 c13 11 30 27 39 36
9 9 64 51 121 94 57 43 118 92 134 110 41 43 65 56 87 44 24 -13 23 -46 -3
-54 -11 -4 -35 -20 -53 -35 -18 -16 -55 -44 -82 -62 -116 -80 -162 -114 -217
-165 -32 -29 -62 -53 -67 -53 -5 0 -27 -18 -49 -40 -45 -45 -51 -47 -75 -21
-19 21 -12 48 14 56 10 3 46 49 81 103 34 53 82 122 105 152 95 121 254 345
254 357 0 3 23 34 50 69 28 35 50 70 50 78 0 8 8 19 18 25 23 13 165 2 226
-18z m-25694 -1636 c0 -140 -2 -165 -15 -165 -8 0 -15 9 -15 20 0 24 -6 25
-27 4 -10 -10 -29 -14 -56 -12 -34 2 -45 9 -64 37 -15 22 -23 49 -23 76 0 27
8 54 23 76 19 29 30 34 66 37 30 2 49 -2 62 -14 18 -17 19 -15 19 44 0 48 3
62 15 62 13 0 15 -25 15 -165z m258 101 c-3 -59 -2 -64 14 -55 9 5 20 14 23
19 8 13 71 13 96 0 62 -34 62 -176 0 -210 -29 -15 -87 -12 -101 5 -17 21 -30
19 -30 -5 0 -11 -7 -20 -15 -20 -13 0 -15 25 -15 165 0 145 2 165 16 165 14 0
16 -10 12 -64z m-1538 46 c0 -4 -6 -14 -12 -21 -11 -11 -10 -12 0 -7 10 6 13
-22 11 -138 -1 -118 -4 -146 -15 -146 -11 0 -14 29 -14 160 0 136 2 160 15
160 8 0 15 -4 15 -8z m23920 -17 c0 -13 -258 -15 -2265 -15 -2007 0 -2265 2
-2265 15 0 13 258 15 2265 15 2007 0 2265 -2 2265 -15z m5460 0 c0 -13 -258
-15 -2260 -15 -2002 0 -2260 2 -2260 15 0 13 258 15 2260 15 2002 0 2260 -2
2260 -15z m-29140 -67 c0 -9 -16 -12 -55 -10 -32 2 -62 -1 -69 -7 -19 -16 -8
-51 18 -61 38 -15 61 -23 74 -26 45 -9 58 -72 20 -98 -28 -20 -148 -23 -148
-3 0 8 20 12 67 12 l68 0 0 30 c0 27 -5 31 -54 47 -78 25 -102 67 -61 108 16
16 33 20 80 20 41 0 60 -4 60 -12z m220 0 c0 -9 -19 -13 -62 -13 l-63 0 0 -30
c0 -27 5 -31 54 -47 29 -10 59 -23 67 -29 22 -18 17 -66 -8 -83 -29 -20 -148
-23 -148 -3 0 10 16 12 63 9 47 -3 67 0 82 13 11 9 14 14 8 10 -9 -4 -13 1
-13 15 0 11 -7 23 -15 26 -8 4 -12 10 -9 15 3 5 -2 6 -10 3 -23 -9 -85 15 -97
38 -15 28 -3 67 24 78 35 14 127 12 127 -2z m112 -73 c1 -110 1 -109 13 -117
6 -4 26 -8 46 -8 56 0 68 21 70 123 1 60 5 87 13 84 7 -2 12 -45 14 -120 2
-100 0 -117 -13 -117 -8 0 -15 9 -15 21 0 19 -1 19 -22 5 -33 -23 -91 -20
-114 5 -27 29 -35 209 -10 209 13 0 16 -14 18 -85z m422 54 c17 -20 26 -43 26
-65 l0 -34 -89 0 c-70 0 -90 -3 -95 -15 -3 -8 0 -15 6 -15 6 0 8 -3 5 -6 -3
-4 5 -16 19 -26 20 -17 36 -20 85 -16 44 3 59 1 59 -9 0 -9 -18 -13 -65 -13
-57 0 -68 3 -97 29 -30 26 -33 35 -33 85 0 47 4 59 29 85 25 26 37 31 77 31
40 0 51 -4 73 -31z m820 -33 c15 -36 34 -84 41 -108 l13 -43 11 30 c6 17 16
39 21 50 5 11 19 46 30 78 12 31 27 57 35 57 8 0 11 -7 8 -20 -3 -11 -10 -17
-16 -13 -6 3 -7 1 -3 -6 8 -12 -89 -254 -108 -270 -6 -5 -23 -12 -39 -16 -21
-6 -27 -4 -27 9 0 10 9 16 25 16 38 0 58 50 39 97 -8 18 -11 33 -7 33 5 0 3 4
-3 8 -17 12 -55 112 -48 124 4 6 3 8 -3 5 -6 -4 -13 2 -16 13 -3 12 0 20 7 20
7 0 25 -29 40 -64z m19036 -341 c0 -59 4 -63 34 -40 21 16 63 20 91 9 31 -12
45 -59 45 -154 l0 -90 -40 0 -40 0 0 84 c0 95 -12 117 -54 98 -26 -12 -36 -46
-36 -128 l0 -54 -35 0 -35 0 0 165 0 165 35 0 35 0 0 -55z m893 49 c34 -6 37
-9 37 -39 l0 -32 -48 10 c-65 14 -104 3 -100 -26 2 -17 14 -24 57 -34 81 -18
105 -40 109 -99 2 -42 -1 -53 -23 -74 -31 -29 -120 -38 -180 -18 -35 11 -40
17 -43 47 -3 29 -1 33 15 26 40 -17 102 -27 127 -21 19 5 26 13 26 31 0 25 -4
27 -103 51 -56 13 -83 80 -53 133 26 46 83 60 179 45z m1387 -24 c0 -28 -3
-30 -35 -30 -32 0 -35 2 -35 30 0 28 3 30 35 30 32 0 35 -2 35 -30z m3953 24
c34 -6 37 -9 37 -39 l0 -32 -48 10 c-65 14 -104 3 -100 -26 2 -17 14 -24 57
-34 81 -18 105 -40 109 -99 2 -42 -1 -53 -23 -74 -31 -29 -120 -38 -180 -18
-35 11 -40 17 -43 47 -3 29 -1 33 15 26 40 -17 102 -27 127 -21 19 5 26 13 26
31 0 25 -4 27 -103 51 -56 13 -83 80 -53 133 26 46 83 60 179 45z m737 -24 c0
-28 -3 -30 -35 -30 -32 0 -35 2 -35 30 0 28 3 30 35 30 32 0 35 -2 35 -30z
m-7428 -65 c16 -44 42 -115 58 -157 l29 -78 -44 0 c-40 0 -44 2 -50 30 -7 30
-7 30 -75 30 -68 0 -68 0 -75 -30 -6 -28 -10 -30 -51 -30 -43 0 -43 0 -33 28
11 28 96 257 104 280 3 9 21 12 56 10 l52 -3 29 -80z m5617 74 c17 -6 36 -19
41 -29 17 -31 12 -79 -9 -92 -18 -11 -18 -12 5 -31 18 -14 24 -28 24 -58 0
-80 -32 -99 -171 -99 l-89 0 0 160 0 160 84 0 c45 0 97 -5 115 -11z m-5321
-65 c16 -5 22 -14 22 -35 0 -27 -2 -29 -27 -22 -48 13 -108 10 -108 -6 0 -14
10 -18 87 -35 15 -3 34 -13 42 -22 23 -22 20 -77 -4 -99 -22 -20 -101 -31
-154 -21 -31 6 -36 11 -36 35 l0 28 51 -11 c50 -10 81 -3 83 19 0 6 -26 17
-59 25 -45 11 -63 21 -74 42 -19 34 -6 77 29 95 26 13 109 17 148 7z m1378
-27 c22 -25 24 -38 24 -123 l0 -94 -40 0 c-30 0 -40 4 -40 16 0 14 -2 14 -22
0 -70 -50 -162 20 -132 99 10 25 58 45 109 45 32 0 45 4 45 14 0 26 -65 35
-114 16 -24 -9 -26 -8 -26 20 0 35 12 39 104 36 61 -2 71 -5 92 -29z m580 0
c22 -25 24 -38 24 -123 l0 -94 -40 0 c-30 0 -40 4 -40 16 0 14 -2 14 -22 0
-70 -50 -162 20 -132 99 10 25 58 45 109 45 32 0 45 4 45 14 0 26 -65 35 -114
16 -24 -9 -26 -8 -26 20 0 35 12 39 104 36 61 -2 71 -5 92 -29z m299 27 c31
-12 45 -59 45 -154 l0 -90 -40 0 -40 0 0 84 c0 95 -12 117 -54 98 -26 -12 -36
-46 -36 -128 l0 -54 -35 0 -35 0 0 120 0 120 34 0 c19 0 36 -5 38 -12 3 -8 11
-7 28 5 25 17 66 22 95 11z m3386 -20 c25 -22 49 -74 49 -104 0 -19 -6 -20
-90 -20 -91 0 -103 -6 -74 -34 20 -20 64 -20 111 -1 45 19 43 20 43 -15 0 -25
-5 -30 -37 -39 -87 -24 -171 -3 -198 50 -33 63 -9 149 48 175 42 19 121 13
148 -12z m304 20 c31 -12 45 -59 45 -154 l0 -90 -40 0 -40 0 0 84 c0 95 -12
117 -54 98 -26 -12 -36 -46 -36 -128 l0 -54 -35 0 -35 0 0 120 0 120 34 0 c19
0 36 -5 38 -12 3 -8 11 -7 28 5 25 17 66 22 95 11z m784 -9 c33 -16 53 -59 53
-110 0 -20 -6 -50 -12 -66 -22 -51 -95 -75 -136 -44 -31 23 -34 19 -34 -45 l0
-60 -35 0 -35 0 0 165 0 165 34 0 c19 0 36 -5 38 -12 3 -8 11 -7 28 5 30 21
62 22 99 2z m289 -22 c3 -31 2 -32 -30 -27 -51 9 -70 -19 -76 -111 l-5 -75
-33 0 -34 0 0 120 0 120 35 0 c25 0 35 -4 35 -16 0 -13 5 -12 27 6 15 12 38
20 52 18 21 -2 27 -9 29 -35z m387 31 c31 -12 45 -59 45 -154 l0 -90 -40 0
-40 0 0 84 c0 95 -12 117 -54 98 -26 -12 -36 -46 -36 -128 l0 -54 -35 0 -35 0
0 120 0 120 34 0 c19 0 36 -5 38 -12 3 -8 11 -7 28 5 25 17 66 22 95 11z m248
-8 c15 -8 27 -11 27 -5 0 5 18 9 41 9 l41 0 -4 -135 -3 -135 -31 -30 c-24 -25
-42 -32 -86 -37 -82 -8 -108 1 -108 37 0 28 2 29 26 20 60 -23 124 2 124 49 0
18 -2 19 -27 5 -76 -39 -153 17 -153 111 0 94 77 150 153 111z m-7183 -74 c0
-80 9 -102 41 -102 32 0 49 40 49 112 l0 68 40 0 40 0 0 -120 0 -120 -40 0
c-29 0 -40 4 -40 15 0 14 -3 14 -30 0 -41 -21 -75 -19 -106 9 -26 22 -28 29
-32 120 l-4 96 41 0 41 0 0 -78z m1084 -4 l29 -82 30 82 30 82 38 0 39 0 -24
-62 c-13 -35 -34 -89 -47 -121 l-22 -58 -44 3 -44 3 -45 113 c-24 63 -44 115
-44 118 0 2 17 4 38 4 l37 0 29 -82z m886 -38 l0 -120 -35 0 -35 0 0 120 0
120 35 0 35 0 0 -120z m4690 0 l0 -120 -35 0 -35 0 0 120 0 120 35 0 35 0 0
-120z m-26351 -105 c-1 -53 1 -99 4 -102 4 -3 35 20 70 51 85 75 109 72 28 -3
-54 -51 -61 -61 -50 -74 8 -8 17 -13 20 -11 3 2 28 -19 54 -46 71 -72 33 -63
-48 10 -36 33 -68 60 -71 60 -3 0 -6 -27 -6 -60 0 -47 -3 -60 -15 -60 -13 0
-15 25 -15 165 0 142 2 165 15 165 13 0 16 -15 14 -95z m-1279 70 c0 -12 -14
-15 -62 -15 l-63 0 3 -145 c3 -126 1 -145 -12 -145 -14 0 -16 21 -16 145 l0
145 -52 1 c-29 1 -56 1 -60 0 -5 0 -8 6 -8 14 0 13 22 15 135 15 113 0 135 -2
135 -15z m448 -60 c-2 -47 0 -71 7 -65 5 6 44 10 87 10 l78 0 0 65 c0 51 3 65
15 65 13 0 15 -24 15 -160 0 -136 -2 -160 -15 -160 -12 0 -15 16 -15 80 l0 80
-85 0 -85 0 0 -80 c0 -64 -3 -80 -15 -80 -13 0 -15 24 -15 160 0 139 2 160 16
160 13 0 15 -12 12 -75z m1147 -15 c47 -124 49 -131 32 -124 -8 3 -26 41 -42
85 -15 43 -31 82 -36 85 -5 3 -9 -57 -9 -135 0 -119 -2 -141 -15 -141 -13 0
-15 25 -15 161 l0 160 26 -3 c24 -3 31 -13 59 -88z m195 -72 c0 -134 -2 -158
-15 -158 -13 0 -15 22 -15 142 0 92 -3 139 -10 132 -5 -5 -23 -47 -40 -93 -16
-46 -34 -89 -40 -96 -5 -6 -7 -15 -3 -18 3 -4 -3 -7 -15 -7 -12 0 -22 2 -22 4
0 2 -3 12 -7 22 -4 10 -2 15 3 11 20 -12 36 12 64 89 48 136 47 134 75 132
l25 -2 0 -158z m-1683 77 c0 -10 -11 -15 -32 -15 -52 0 -67 -26 -73 -130 -3
-67 -8 -90 -18 -90 -11 0 -14 25 -14 120 0 104 2 120 16 120 10 0 14 -6 10
-15 -6 -17 19 -21 29 -5 3 5 20 14 38 19 44 13 44 13 44 -4z m49 -11 c-3 -8
-2 -12 3 -9 5 3 13 -5 16 -17 4 -13 18 -47 31 -76 13 -29 24 -57 24 -62 0 -25
19 -6 34 35 10 25 21 45 25 45 4 0 7 10 8 22 1 12 7 34 14 50 13 32 40 39 32
8 -3 -11 -10 -17 -16 -13 -6 3 -7 1 -3 -5 8 -13 -79 -234 -103 -262 -22 -27
-71 -38 -71 -16 0 10 9 16 25 16 20 0 29 8 39 32 12 28 11 37 -16 102 -69 165
-69 166 -52 166 10 0 14 -5 10 -16z m739 -9 c23 -22 25 -32 25 -120 0 -57 -4
-95 -10 -95 -5 0 -10 9 -10 20 0 24 -8 25 -34 5 -29 -22 -92 -19 -116 5 -48
48 -6 104 87 115 56 6 60 8 55 30 -7 37 -26 47 -85 43 -38 -2 -54 1 -54 10 0
8 19 12 59 12 49 0 63 -4 83 -25z m285 13 c0 -9 -15 -12 -51 -9 -52 3 -89 -16
-89 -46 0 -7 -8 -13 -17 -13 -11 0 -14 -3 -7 -8 6 -4 14 -24 17 -46 10 -61 32
-78 94 -74 38 2 53 -1 53 -9 0 -9 -18 -13 -58 -13 -63 0 -94 18 -113 67 -20
54 2 131 44 151 32 15 127 15 127 0z m875 -20 c16 -19 25 -42 25 -64 l0 -35
-94 3 -94 3 9 -23 c5 -13 6 -29 2 -35 -3 -7 -2 -9 2 -4 5 4 16 0 26 -9 13 -12
33 -15 78 -12 44 2 61 0 61 -9 0 -9 -19 -13 -64 -13 -56 0 -67 3 -97 30 -31
26 -34 34 -34 84 0 47 4 59 29 85 25 26 36 30 78 29 41 0 52 -5 73 -30z
m19191 -364 c19 -13 22 -20 13 -30 -9 -11 -16 -11 -41 2 -37 19 -78 11 -109
-22 -19 -20 -24 -39 -27 -94 -4 -69 -4 -70 31 -105 39 -39 78 -45 116 -19 28
20 52 5 32 -20 -22 -26 -75 -38 -118 -27 -97 26 -141 158 -87 262 32 62 133
90 190 53z m344 -4 c0 -18 -7 -20 -55 -20 l-55 0 0 -145 c0 -138 -1 -145 -20
-145 -19 0 -20 7 -20 145 l0 145 -55 0 c-48 0 -55 2 -55 20 0 19 7 20 130 20
123 0 130 -1 130 -20z m258 -10 c57 -57 63 -198 11 -264 -43 -55 -135 -55
-178 0 -52 66 -46 207 10 264 26 25 38 30 79 30 40 0 53 -5 78 -30z m4868 14
c19 -13 22 -20 13 -30 -9 -11 -16 -11 -41 2 -37 19 -78 11 -109 -22 -19 -20
-24 -39 -27 -94 -4 -69 -4 -70 31 -105 39 -39 78 -45 116 -19 28 20 52 5 32
-20 -22 -26 -75 -38 -118 -27 -97 26 -141 158 -87 262 32 62 133 90 190 53z
m324 -4 c0 -18 -7 -20 -80 -20 l-80 0 0 -50 0 -50 71 0 c62 0 70 -2 67 -17 -3
-15 -16 -19 -71 -21 l-67 -3 0 -54 0 -54 82 -3 c70 -3 83 -6 86 -20 3 -16 -7
-18 -102 -18 l-106 0 0 165 0 165 100 0 c93 0 100 -1 100 -20z m278 -10 c57
-57 63 -198 11 -264 -43 -55 -135 -55 -178 0 -31 39 -45 125 -31 185 18 73 58
109 120 109 40 0 53 -5 78 -30z m-27384 -201 c26 -31 35 -79 15 -79 -5 0 -8
-4 -5 -9 7 -11 -49 -84 -100 -131 l-38 -35 77 -3 c59 -2 77 -6 77 -17 0 -12
-18 -15 -95 -15 -78 0 -95 3 -95 15 0 21 69 95 88 95 8 0 13 3 9 6 -5 5 32 64
53 84 13 13 4 76 -13 88 -19 14 -86 13 -119 -2 -13 -6 -18 -4 -18 7 0 18 17
23 87 25 46 1 55 -2 77 -29z m269 11 c17 -14 24 -26 20 -37 -4 -11 -3 -14 5
-9 19 11 14 -35 -7 -69 -10 -17 -44 -59 -76 -93 -31 -34 -51 -62 -44 -63 8 0
38 0 67 1 37 1 52 -2 52 -12 0 -10 3 -9 10 2 8 13 10 12 10 -2 0 -16 -11 -18
-95 -18 -117 0 -121 10 -39 90 30 30 64 70 75 88 12 17 25 30 29 27 5 -3 12
-1 15 5 4 6 1 9 -5 8 -7 -2 -14 10 -15 26 -6 45 -30 64 -73 59 -20 -3 -45 -9
-54 -14 -23 -12 -28 -11 -28 5 0 31 115 35 153 6z m213 3 c-3 -10 -8 -30 -12
-45 -3 -16 -10 -28 -16 -28 -5 0 -7 -4 -4 -9 3 -5 -10 -57 -29 -116 -19 -59
-35 -113 -35 -121 0 -14 -18 -29 -26 -21 -5 4 91 329 103 350 9 15 24 6 19
-10z m194 6 c0 -5 4 -8 10 -4 15 9 43 -42 51 -95 10 -63 -11 -158 -41 -182
-33 -27 -95 -24 -125 7 -14 13 -25 30 -26 37 0 7 -3 22 -5 33 -18 71 2 174 39
200 24 17 97 20 97 4z m307 -4 c13 -9 20 -22 17 -30 -4 -8 -1 -15 5 -15 6 0
11 -7 11 -16 0 -8 -4 -13 -9 -10 -5 3 -8 -2 -7 -12 0 -9 -9 -21 -21 -27 -30
-13 -29 -19 3 -34 17 -7 24 -17 20 -27 -3 -8 -2 -12 4 -9 6 4 10 -10 10 -34 0
-51 -30 -76 -94 -80 -48 -2 -91 13 -81 30 4 5 1 8 -7 7 -8 -2 -14 8 -16 26 -5
44 6 76 33 88 l24 11 -29 27 c-36 34 -38 63 -5 95 19 20 34 25 72 25 27 0 58
-7 70 -15z m208 -7 c-26 -100 -105 -333 -116 -337 -8 -2 -10 3 -7 15 3 11 14
47 23 82 10 34 22 62 27 62 5 0 7 4 4 8 -4 7 28 125 49 180 8 22 26 13 20 -10z
m216 -7 c16 -17 29 -40 29 -54 0 -31 -38 -88 -103 -154 l-51 -53 45 0 c25 0
51 -6 58 -12 11 -10 13 -10 7 0 -5 8 1 12 18 12 16 0 26 -6 26 -15 0 -12 -17
-15 -95 -15 -60 0 -95 4 -95 11 0 5 4 8 9 5 5 -4 7 2 5 11 -3 12 13 35 46 67
63 62 91 106 94 150 2 27 -2 37 -19 46 -23 12 -85 10 -117 -4 -13 -6 -18 -4
-18 7 0 19 19 24 83 26 41 1 53 -3 78 -28z m268 11 c12 -9 23 -24 24 -32 2 -8
6 -21 11 -28 18 -30 6 -189 -15 -177 -5 4 -6 -1 -3 -9 10 -25 -40 -49 -89 -43
-51 7 -72 30 -86 97 -12 53 3 160 22 160 6 0 7 3 4 7 -9 9 13 34 24 27 5 -3 9
0 9 5 0 18 76 13 99 -7z m282 -11 c49 -50 37 -88 -66 -199 -31 -34 -51 -62
-44 -63 8 0 38 0 67 1 37 1 52 -2 52 -12 0 -10 3 -9 10 2 8 13 10 12 10 -2 0
-16 -11 -18 -95 -18 -117 0 -121 10 -39 90 30 30 64 70 75 88 12 17 25 30 29
27 5 -3 12 0 16 6 4 7 3 9 -4 5 -6 -3 -13 -2 -17 4 -3 5 -2 10 3 10 6 0 12 7
15 14 4 10 1 13 -9 9 -8 -3 -14 1 -14 9 0 17 -39 55 -49 49 -3 -2 -19 -7 -36
-11 -16 -4 -38 -11 -47 -15 -13 -5 -18 -2 -18 8 0 19 19 24 83 26 41 1 53 -3
78 -28z m289 14 c0 -12 -14 -15 -65 -15 l-65 0 0 -45 0 -45 40 0 c42 0 99 -23
102 -40 0 -6 1 -16 2 -22 1 -7 5 -16 10 -19 16 -12 -15 -79 -44 -94 -36 -19
-150 -21 -150 -2 0 9 18 11 64 9 60 -3 66 -2 81 22 22 33 22 69 2 100 -12 18
-27 25 -64 28 -26 3 -53 1 -60 -4 -9 -7 -11 10 -11 66 l1 76 78 0 c64 0 79 -3
79 -15z"/>
<path d="M3412 19788 c-18 -18 -16 -133 3 -148 28 -23 45 5 45 74 0 55 -11 86
-30 86 -3 0 -11 -5 -18 -12z"/>
<path d="M3990 19781 c-15 -28 -12 -114 4 -136 12 -16 16 -17 30 -6 12 10 16
31 16 75 0 77 -26 111 -50 67z"/>
<path d="M3787 19433 c-9 -8 -9 -116 -1 -137 8 -22 31 -20 44 3 11 21 14 100
4 125 -6 16 -35 22 -47 9z"/>
<path d="M5024 19350 c-60 -24 -72 -104 -24 -152 27 -26 36 -30 68 -25 91 15
113 130 32 172 -32 17 -45 18 -76 5z"/>
<path d="M3199 19117 c-14 -31 -4 -97 15 -97 28 0 37 89 11 110 -12 10 -17 8
-26 -13z"/>
<path d="M3472 19128 c-23 -23 -13 -108 13 -108 24 0 33 75 12 103 -10 14 -15
15 -25 5z"/>
<path d="M3924 19127 c-11 -29 0 -102 16 -102 19 0 22 106 3 112 -7 3 -16 -2
-19 -10z"/>
<path d="M3774 18926 c-3 -8 -4 -31 -2 -52 2 -27 8 -40 21 -42 14 -3 17 5 17
52 0 44 -3 56 -15 56 -9 0 -18 -6 -21 -14z"/>
<path d="M4046 18925 c-9 -24 -7 -68 4 -85 16 -25 32 3 28 50 -3 45 -21 63
-32 35z"/>
<path d="M3184 18886 c-8 -22 -1 -59 14 -64 8 -2 12 9 12 37 0 40 -15 55 -26
27z"/>
<path d="M5128 18778 c-24 -8 -44 -35 -34 -45 2 -2 36 -3 76 -1 l72 3 -18 21
c-23 27 -60 35 -96 22z"/>
<path d="M3520 18710 c0 -29 4 -40 13 -37 6 2 12 19 12 37 0 18 -6 35 -12 38
-9 2 -13 -9 -13 -38z"/>
<path d="M24720 17470 c-308 -15 -622 -52 -945 -109 -88 -16 -184 -32 -212
-35 -52 -7 -331 -75 -468 -116 -38 -11 -94 -27 -123 -35 -30 -9 -61 -19 -70
-24 -10 -5 -43 -14 -75 -20 -59 -11 -351 -116 -490 -177 -43 -19 -84 -34 -91
-34 -18 0 -83 -29 -274 -121 -90 -43 -165 -79 -168 -79 -19 0 -226 -103 -316
-158 l-58 -35 0 -2118 0 -2119 3603 0 3604 0 6 482 c4 265 7 1218 7 2119 l0
1639 -42 21 c-24 12 -58 32 -78 45 -19 13 -96 50 -170 84 -74 33 -162 73 -195
90 -152 74 -276 130 -330 148 -33 11 -112 41 -175 67 -162 66 -384 145 -408
145 -11 0 -39 7 -63 16 -148 52 -588 169 -674 180 -27 3 -95 14 -150 25 -247
47 -564 88 -835 109 -196 14 -619 20 -810 10z m430 -843 c71 -37 158 -118 193
-179 14 -24 30 -67 37 -95 l12 -53 57 0 c106 0 157 -23 236 -104 91 -92 122
-181 74 -207 -36 -19 -62 2 -83 66 -24 68 -78 119 -153 141 -59 18 -102 12
-170 -24 -61 -31 -86 -25 -91 25 -2 23 3 34 22 47 34 22 33 37 -10 126 -44 93
-80 132 -164 173 -59 29 -73 32 -160 32 -87 0 -101 -3 -167 -34 -58 -28 -80
-45 -114 -90 -36 -49 -79 -130 -79 -150 0 -3 20 -13 45 -20 57 -17 98 -62 86
-94 -11 -30 -41 -32 -93 -6 -145 74 -328 -42 -328 -208 0 -102 84 -210 180
-232 25 -6 156 -11 292 -11 135 0 253 -3 262 -6 19 -7 21 -45 4 -62 -9 -9 -88
-12 -294 -12 l-282 0 -83 43 -84 42 -40 80 c-37 74 -40 85 -39 160 1 81 9 109
57 186 36 61 119 117 194 133 29 7 34 15 68 101 33 86 42 99 103 153 117 103
179 124 349 116 91 -4 110 -8 163 -37z m194 -718 c28 -13 36 -35 36 -102 0
-71 -12 -87 -64 -87 -52 0 -64 12 -71 71 -8 58 6 101 36 116 30 16 32 16 63 2z
m457 -2 c40 -31 51 -104 24 -157 -13 -26 -21 -30 -55 -30 -48 0 -70 27 -70 87
0 56 15 92 42 103 31 12 40 11 59 -3z m-591 -92 c0 -95 0 -95 -25 -95 -24 0
-25 2 -25 66 0 55 -2 65 -14 55 -10 -9 -17 -7 -27 5 -12 14 -9 19 16 40 17 13
40 24 53 24 21 0 22 -3 22 -95z m450 0 c0 -88 -1 -95 -20 -95 -18 0 -20 7 -20
66 0 55 -2 65 -14 55 -10 -9 -17 -7 -27 5 -12 14 -9 19 16 40 57 45 65 36 65
-71z m-450 -290 c0 -95 0 -95 -25 -95 -24 0 -25 2 -25 66 0 57 -2 65 -15 54
-16 -13 -35 -6 -35 15 0 19 50 54 78 55 21 0 22 -3 22 -95z m150 0 c0 -95 0
-95 -25 -95 -24 0 -25 2 -25 66 0 58 -2 65 -15 54 -12 -10 -18 -10 -31 1 -15
12 -13 16 17 41 18 15 44 28 56 28 22 0 23 -3 23 -95z m150 0 c0 -95 0 -95
-25 -95 -24 0 -25 2 -25 66 0 58 -2 65 -15 54 -12 -10 -18 -10 -31 1 -15 12
-13 16 17 41 18 15 44 28 56 28 22 0 23 -3 23 -95z m154 73 c10 -13 16 -43 16
-73 0 -81 -42 -116 -100 -85 -43 23 -49 121 -9 161 26 26 74 25 93 -3z m-476
-271 c28 -57 -29 -134 -72 -98 -19 16 -26 69 -13 104 8 24 14 28 41 25 22 -2
34 -11 44 -31z m90 -35 c2 -51 0 -62 -13 -62 -11 0 -15 10 -15 39 0 31 -4 40
-22 44 l-21 6 24 20 c13 11 29 19 34 17 6 -1 11 -30 13 -64z m118 42 c14 -20
15 -33 8 -61 -12 -49 -34 -62 -68 -40 -21 14 -26 25 -26 57 0 67 54 94 86 44z
m104 -39 c0 -58 -2 -65 -20 -65 -17 0 -20 7 -20 39 0 31 -4 40 -22 44 l-21 6
24 20 c46 39 59 29 59 -44z m254 49 c23 -22 21 -87 -4 -109 -56 -51 -116 49
-67 113 13 17 52 15 71 -4z m104 -52 c3 -57 1 -62 -18 -62 -17 0 -20 6 -20 45
0 35 -3 43 -15 39 -20 -8 -19 5 2 28 31 35 48 19 51 -50z m-216 -106 c12 -18
9 -91 -4 -104 -19 -19 -66 -15 -78 7 -18 35 -12 88 12 105 23 16 57 12 70 -8z
m208 4 c38 -38 15 -120 -35 -120 -43 0 -61 73 -29 118 19 27 38 28 64 2z
m-110 -55 c0 -58 -2 -65 -20 -65 -17 0 -20 7 -20 45 0 34 -3 43 -14 39 -24 -9
-27 14 -4 30 46 33 58 22 58 -49z m-580 9 c21 -24 1 -69 -30 -69 -20 0 -26 6
-28 28 -2 16 -1 35 2 43 7 19 40 18 56 -2z m70 -29 c0 -25 -4 -45 -10 -45 -5
0 -10 13 -10 30 0 22 -4 28 -15 24 -18 -7 -20 7 -3 24 25 25 38 13 38 -33z
m189 -79 c7 -8 11 -30 9 -48 -2 -28 -7 -34 -30 -36 -27 -3 -28 -1 -28 41 0 24
3 47 7 50 11 11 30 8 42 -7z m79 -39 c2 -37 0 -47 -12 -47 -11 0 -16 9 -16 29
0 16 -6 31 -12 34 -10 3 -10 8 1 21 22 26 36 13 39 -37z m162 -653 l0 -147 22
29 c12 16 37 46 57 67 33 35 39 37 94 37 l59 0 -42 -47 c-84 -95 -84 -103 -1
-222 28 -41 51 -78 51 -83 0 -4 -26 -8 -58 -8 l-58 0 -37 65 c-21 36 -40 65
-44 65 -4 0 -15 -7 -25 -17 -13 -11 -18 -30 -18 -65 l0 -48 -55 0 -55 0 0 260
0 260 55 0 55 0 0 -146z m-2032 59 l-3 -48 -62 -3 -63 -3 0 -189 0 -190 -55 0
-55 0 0 190 0 190 -65 0 -65 0 0 50 0 50 186 0 185 0 -3 -47z m832 -43 l0 -90
80 0 80 0 0 90 0 90 55 0 55 0 0 -240 0 -240 -55 0 -54 0 -3 98 -3 97 -77 3
-78 3 0 -101 0 -100 -55 0 -55 0 0 240 0 240 55 0 55 0 0 -90z m1654 13 c16
-43 37 -103 48 -133 30 -88 30 -88 39 -40 5 25 26 91 46 147 l38 103 63 0 62
0 0 -240 0 -240 -51 0 -52 0 5 163 4 164 -27 -81 c-15 -45 -39 -108 -52 -141
-22 -52 -29 -60 -54 -63 -29 -3 -31 0 -67 93 -20 53 -41 113 -46 133 -5 24 -7
-16 -3 -115 l6 -153 -57 0 -56 0 0 240 0 240 63 0 62 0 29 -77z m-2204 -35
c-2 -27 -31 -92 -41 -90 -21 5 -67 -19 -84 -44 -11 -17 -15 -50 -15 -129 l0
-105 -55 0 -55 0 0 180 0 180 44 0 c36 0 45 -4 49 -21 6 -20 6 -20 44 5 24 17
51 26 75 26 21 0 38 -1 38 -2z m1161 -21 c18 -12 36 -33 40 -47 4 -14 7 -87 8
-162 l1 -138 -45 0 c-33 0 -45 4 -45 15 0 19 -3 19 -42 -5 -49 -30 -103 -26
-139 9 -25 25 -29 37 -29 84 0 49 3 58 30 81 28 23 51 32 133 50 34 8 34 21 2
42 -23 15 -28 15 -72 0 -47 -16 -48 -16 -65 6 -29 38 -22 54 30 71 72 24 152
22 193 -6z m385 7 l33 -16 -26 -34 c-20 -27 -30 -33 -47 -28 -59 20 -106 -20
-106 -90 0 -77 59 -119 120 -86 15 8 22 4 40 -25 17 -28 19 -39 10 -50 -32
-38 -153 -45 -204 -12 -14 9 -38 38 -53 64 -56 95 -25 233 60 272 52 24 128
26 173 5z m1281 -6 c42 -29 65 -88 61 -154 l-3 -49 -92 -3 c-51 -1 -93 -7 -93
-12 0 -6 10 -20 21 -31 21 -21 65 -23 110 -5 10 5 20 -4 32 -29 l17 -35 -40
-20 c-89 -46 -198 -9 -246 82 -22 42 -18 153 7 198 41 73 159 103 226 58z
m-2663 -110 c22 -65 41 -116 43 -115 2 2 8 30 14 63 5 32 17 85 26 117 l16 57
53 0 c30 0 54 -4 54 -10 0 -14 -129 -379 -145 -409 -26 -51 -61 -74 -119 -79
-29 -2 -56 0 -59 5 -4 6 -2 26 4 45 7 28 14 35 27 31 23 -6 62 26 64 52 2 20
-20 85 -92 268 l-38 98 57 -3 56 -3 39 -117z m-863 -798 c46 -24 58 -45 37
-66 -13 -14 -19 -13 -49 5 -105 64 -209 -21 -209 -170 0 -157 109 -245 215
-174 35 25 38 25 56 9 18 -16 18 -19 3 -35 -25 -27 -96 -59 -132 -59 -43 0
-100 25 -136 58 -76 71 -100 216 -52 317 25 54 76 108 116 124 42 16 108 12
151 -9z m569 -15 c0 -24 -1 -24 -102 -27 l-103 -3 -3 -72 -3 -72 88 -3 c88 -3
88 -3 91 -30 l3 -28 -90 0 -91 0 0 -85 0 -85 110 0 110 0 0 -30 0 -30 -140 0
-140 0 0 245 0 245 135 0 135 0 0 -25z m500 7 c91 -48 91 -188 0 -240 -16 -9
-30 -19 -30 -22 0 -3 23 -46 51 -95 69 -119 68 -115 26 -115 -33 0 -38 4 -57
48 -12 26 -38 73 -58 104 -34 53 -40 58 -74 58 l-38 0 0 -105 0 -105 -35 0
-35 0 0 245 0 245 108 0 c85 0 115 -4 142 -18z m600 -7 c0 -24 -2 -25 -70 -25
l-70 0 0 -220 0 -220 -30 0 -30 0 0 220 0 220 -70 0 c-68 0 -70 1 -70 25 l0
25 170 0 170 0 0 -25z m300 -220 l0 -245 -35 0 -35 0 0 245 0 245 35 0 35 0 0
-245z m540 220 c0 -24 -1 -24 -102 -27 l-103 -3 -3 -77 -3 -78 91 0 90 0 0
-30 0 -30 -90 0 -90 0 0 -110 0 -110 -30 0 -30 0 0 245 0 245 135 0 135 0 0
-25z m290 -220 l0 -245 -30 0 -30 0 0 245 0 245 30 0 30 0 0 -245z m550 220
l0 -25 -105 0 -105 0 0 -75 0 -74 88 -3 c87 -3 87 -3 90 -30 l3 -28 -90 0 -91
0 0 -85 0 -85 110 0 110 0 0 -30 0 -30 -140 0 -140 0 0 245 0 245 135 0 135 0
0 -25z m488 -8 c67 -44 95 -97 100 -193 4 -72 1 -87 -23 -137 -19 -42 -39 -66
-73 -89 -44 -31 -53 -33 -149 -36 l-103 -4 0 247 0 247 103 -4 c93 -3 108 -6
145 -31z"/>
<path d="M25302 15868 c-14 -14 -16 -87 -3 -107 17 -26 41 6 41 54 0 47 -19
72 -38 53z"/>
<path d="M25762 15868 c-14 -14 -16 -87 -2 -108 16 -25 33 4 33 55 0 51 -12
72 -31 53z"/>
<path d="M25602 15568 c-14 -14 -16 -67 -3 -87 24 -38 59 26 41 73 -11 29 -20
32 -38 14z"/>
<path d="M25124 15316 c-9 -23 5 -68 19 -63 16 5 16 69 0 74 -7 3 -16 -2 -19
-11z"/>
<path d="M25345 15310 c-3 -10 -1 -29 6 -41 10 -20 12 -21 21 -5 11 19 3 66
-12 66 -5 0 -11 -9 -15 -20z"/>
<path d="M25707 15324 c-11 -11 -8 -62 4 -70 15 -9 30 16 27 45 -3 25 -19 37
-31 25z"/>
<path d="M25591 15166 c-16 -20 -10 -61 9 -61 9 0 16 11 18 29 4 35 -10 52
-27 32z"/>
<path d="M25806 15173 c-3 -3 -6 -21 -6 -40 0 -23 5 -33 15 -33 10 0 15 10 15
34 0 34 -11 52 -24 39z"/>
<path d="M25120 15115 c0 -14 5 -25 10 -25 6 0 10 11 10 25 0 14 -4 25 -10 25
-5 0 -10 -11 -10 -25z"/>
<path d="M25384 15016 c-7 -20 2 -46 16 -46 13 0 13 47 0 55 -6 3 -13 -1 -16
-9z"/>
<path d="M24947 14114 c-30 -16 -33 -40 -6 -57 25 -15 69 16 69 48 0 29 -20
32 -63 9z"/>
<path d="M26616 14235 c-9 -13 -16 -27 -16 -30 0 -3 25 -5 55 -5 46 0 55 3 55
18 0 46 -67 58 -94 17z"/>
<path d="M24100 13280 l0 -92 71 4 c86 5 109 24 109 93 0 60 -22 76 -110 83
l-70 5 0 -93z"/>
<path d="M26870 13181 l0 -191 50 0 c64 0 93 14 127 63 25 37 28 48 28 128 0
73 -3 92 -21 115 -34 46 -67 65 -127 71 l-57 6 0 -192z"/>
<path d="M23828 11895 c-5 -5 -8 -230 -8 -502 l0 -493 120 0 120 0 0 164 0
164 108 4 c148 6 229 34 300 102 69 67 92 127 92 241 0 111 -26 172 -101 238
-80 70 -113 77 -389 84 -129 3 -238 2 -242 -2z m432 -214 c60 -16 78 -138 29
-199 -32 -40 -67 -52 -155 -52 l-74 0 0 130 0 130 88 -1 c48 -1 98 -4 112 -8z"/>
<path d="M24694 11887 c-2 -7 -3 -56 -2 -108 l3 -94 133 -3 132 -3 0 -389 0
-390 125 0 125 0 0 390 0 389 128 3 127 3 0 105 0 105 -383 3 c-312 2 -383 0
-388 -11z"/>
<path d="M25861 11839 c-41 -21 -95 -41 -120 -46 l-46 -8 -3 -78 -3 -77 91 0
90 0 0 -265 0 -265 -100 0 -100 0 0 -100 0 -100 310 0 310 0 0 100 0 100 -85
0 -85 0 0 390 0 390 -92 -2 c-86 -1 -99 -4 -167 -39z"/>
<path d="M21820 10454 c36 -20 88 -50 115 -68 124 -81 162 -104 185 -111 23
-7 114 -62 218 -131 26 -17 88 -52 137 -79 50 -26 119 -67 155 -90 111 -71
134 -84 180 -107 43 -20 91 -50 205 -124 28 -18 79 -48 115 -67 36 -19 88 -48
115 -64 129 -78 191 -116 205 -128 8 -7 26 -16 40 -20 14 -4 48 -22 75 -40
115 -73 232 -144 267 -161 42 -22 132 -75 233 -139 39 -24 93 -55 120 -68 28
-13 73 -40 102 -58 91 -60 166 -106 234 -142 37 -20 87 -49 112 -64 25 -15 84
-52 131 -81 47 -29 97 -57 111 -62 14 -5 57 -30 96 -56 l70 -45 79 50 c43 28
86 51 94 51 8 0 21 6 28 13 7 7 38 28 68 46 30 18 91 55 135 82 44 27 98 57
121 68 22 10 64 34 92 52 90 61 167 107 233 142 35 18 96 53 134 77 39 23 96
59 128 78 31 19 60 39 63 43 3 5 13 9 22 9 10 0 40 15 67 33 86 56 208 130
260 156 52 27 85 47 148 90 71 48 172 109 222 134 28 13 93 52 145 86 52 34
122 75 155 92 33 16 92 50 130 74 39 24 117 71 175 104 105 60 215 126 313
189 29 19 75 44 102 58 28 13 82 44 120 68 111 70 207 126 216 126 4 0 11 5
14 10 4 7 -1089 10 -3272 10 l-3278 0 65 -36z"/>
<path d="M2720 14716 l0 -306 168 0 c228 0 291 18 370 103 55 61 76 132 70
241 -7 130 -50 192 -165 237 -51 20 -81 23 -250 27 l-193 4 0 -306z"/>
<path d="M2930 11729 c-14 -6 -38 -22 -53 -37 -119 -112 -90 -340 50 -398 69
-29 176 -12 217 35 20 22 20 22 -12 53 -31 32 -31 32 -52 13 -14 -13 -36 -20
-62 -20 -51 0 -92 42 -102 104 -18 115 75 209 153 155 22 -16 24 -15 54 14 26
27 29 33 17 47 -35 42 -145 60 -210 34z"/>
<path d="M3550 11515 l0 -225 155 0 155 0 0 45 0 45 -100 0 -100 0 0 45 0 45
80 0 80 0 0 45 0 45 -80 0 -80 0 0 40 0 40 95 0 95 0 0 50 0 50 -150 0 -150 0
0 -225z"/>
<path d="M4370 11584 l0 -47 36 6 c45 8 64 23 64 53 0 26 -16 41 -23 22 -4
-10 -6 -10 -6 0 -1 7 -15 12 -36 12 -35 0 -35 0 -35 -46z m67 -10 c-3 -3 -12
-4 -19 -1 -8 3 -5 6 6 6 11 1 17 -2 13 -5z"/>
<path d="M13620 9219 c-60 -24 -98 -89 -107 -182 -13 -139 38 -242 124 -254
61 -8 104 3 141 37 l32 29 -2 168 -3 168 -45 23 c-47 23 -98 27 -140 11z"/>
<path d="M3481 8959 c-64 -12 -126 -46 -139 -75 -33 -70 6 -114 99 -114 61 0
89 9 152 47 37 23 37 24 37 88 l0 65 -52 -1 c-29 -1 -73 -5 -97 -10z"/>
<path d="M8780 9229 c-35 -14 -69 -48 -91 -91 -10 -21 -19 -40 -19 -43 0 -3
77 -5 170 -5 170 0 170 0 170 23 0 37 -34 89 -71 109 -37 20 -118 23 -159 7z"/>
<path d="M11665 9215 c-86 -43 -121 -215 -69 -344 57 -143 253 -122 295 31 17
65 8 195 -17 243 -40 77 -132 108 -209 70z"/>
<path d="M12635 9215 c-86 -43 -121 -215 -69 -344 57 -143 253 -122 295 31 17
65 8 195 -17 243 -40 77 -132 108 -209 70z"/>
<path d="M5080 7430 c-15 -15 -20 -33 -20 -75 0 -62 22 -95 63 -95 40 0 62 35
62 97 0 45 -4 58 -24 74 -30 24 -56 24 -81 -1z"/>
<path d="M11320 7430 c-15 -15 -20 -33 -20 -75 0 -62 22 -95 63 -95 40 0 62
35 62 97 0 45 -4 58 -24 74 -30 24 -56 24 -81 -1z"/>
<path d="M11730 7430 c-15 -15 -20 -33 -20 -75 0 -62 22 -95 63 -95 40 0 62
35 62 97 0 45 -4 58 -24 74 -30 24 -56 24 -81 -1z"/>
<path d="M14540 7430 c-15 -15 -20 -33 -20 -75 0 -62 22 -95 63 -95 40 0 62
35 62 97 0 45 -4 58 -24 74 -30 24 -56 24 -81 -1z"/>
<path d="M2398 7339 c-21 -12 -24 -49 -6 -67 31 -31 108 10 108 58 0 17 -6 20
-42 20 -24 0 -51 -5 -60 -11z"/>
<path d="M3272 7427 c-30 -32 -31 -114 -2 -145 46 -49 110 -7 110 73 0 80 -62
121 -108 72z"/>
<path d="M3984 7429 c-14 -15 -19 -36 -19 -74 0 -60 23 -95 62 -95 41 0 63 33
63 95 0 42 -5 60 -20 75 -26 26 -62 25 -86 -1z"/>
<path d="M4375 7425 c-44 -43 -34 -55 46 -55 68 0 70 1 63 23 -18 59 -68 74
-109 32z"/>
<path d="M4815 7425 c-44 -43 -34 -55 46 -55 68 0 70 1 63 23 -18 59 -68 74
-109 32z"/>
<path d="M5945 7425 c-44 -43 -34 -55 46 -55 68 0 70 1 63 23 -18 59 -68 74
-109 32z"/>
<path d="M6355 7425 c-44 -43 -34 -55 46 -55 68 0 70 1 63 23 -18 59 -68 74
-109 32z"/>
<path d="M6868 7339 c-21 -12 -24 -49 -6 -67 31 -31 108 10 108 58 0 17 -6 20
-42 20 -24 0 -51 -5 -60 -11z"/>
<path d="M7875 7425 c-44 -43 -34 -55 46 -55 68 0 70 1 63 23 -18 59 -68 74
-109 32z"/>
<path d="M8140 7430 c-15 -15 -20 -33 -20 -75 0 -62 22 -95 63 -95 40 0 62 35
62 97 0 45 -4 58 -24 74 -30 24 -56 24 -81 -1z"/>
<path d="M8995 7425 c-44 -43 -34 -55 46 -55 68 0 70 1 63 23 -18 59 -68 74
-109 32z"/>
<path d="M9695 7425 c-44 -43 -34 -55 46 -55 68 0 70 1 63 23 -18 59 -68 74
-109 32z"/>
<path d="M10768 7339 c-21 -12 -24 -49 -6 -67 31 -31 108 10 108 58 0 17 -6
20 -42 20 -24 0 -51 -5 -60 -11z"/>
<path d="M12015 7425 c-44 -43 -34 -55 46 -55 68 0 70 1 63 23 -18 59 -68 74
-109 32z"/>
<path d="M12712 7427 c-30 -32 -31 -114 -2 -145 46 -49 110 -7 110 73 0 80
-62 121 -108 72z"/>
<path d="M13828 7339 c-21 -12 -24 -49 -6 -67 31 -31 108 10 108 58 0 17 -6
20 -42 20 -24 0 -51 -5 -60 -11z"/>
<path d="M14275 7425 c-44 -43 -34 -55 46 -55 68 0 70 1 63 23 -18 59 -68 74
-109 32z"/>
<path d="M15712 7427 c-30 -32 -31 -114 -2 -145 46 -49 110 -7 110 73 0 80
-62 121 -108 72z"/>
<path d="M16260 7430 c-15 -15 -20 -33 -20 -75 0 -62 22 -95 63 -95 39 0 62
35 62 95 0 84 -56 124 -105 75z"/>
<path d="M17250 7430 c-15 -15 -20 -33 -20 -75 0 -62 22 -95 63 -95 39 0 62
35 62 95 0 84 -56 124 -105 75z"/>
<path d="M17532 7427 c-30 -32 -31 -114 -2 -145 46 -49 110 -7 110 73 0 80
-62 121 -108 72z"/>
<path d="M17972 7427 c-30 -32 -31 -114 -2 -145 46 -49 110 -7 110 73 0 80
-62 121 -108 72z"/>
<path d="M7400 6710 c-15 -15 -20 -33 -20 -75 0 -62 22 -95 63 -95 40 0 62 35
62 97 0 45 -4 58 -24 74 -30 24 -56 24 -81 -1z"/>
<path d="M8910 6710 c-15 -15 -20 -33 -20 -75 0 -62 22 -95 63 -95 40 0 62 35
62 97 0 45 -4 58 -24 74 -30 24 -56 24 -81 -1z"/>
<path d="M14120 6710 c-15 -15 -20 -33 -20 -75 0 -62 22 -95 63 -95 40 0 62
35 62 97 0 45 -4 58 -24 74 -30 24 -56 24 -81 -1z"/>
<path d="M2118 6619 c-21 -12 -24 -49 -6 -67 31 -31 108 10 108 58 0 17 -6 20
-42 20 -24 0 -51 -5 -60 -11z"/>
<path d="M2855 6705 c-44 -43 -34 -55 46 -55 68 0 70 1 63 23 -18 59 -68 74
-109 32z"/>
<path d="M4005 6705 c-44 -43 -34 -55 46 -55 68 0 70 1 63 23 -18 59 -68 74
-109 32z"/>
<path d="M5445 6705 c-44 -43 -34 -55 46 -55 68 0 70 1 63 23 -18 59 -68 74
-109 32z"/>
<path d="M6382 6707 c-30 -32 -31 -114 -2 -145 46 -49 110 -7 110 73 0 80 -62
121 -108 72z"/>
<path d="M7135 6705 c-44 -43 -34 -55 46 -55 68 0 70 1 63 23 -18 59 -68 74
-109 32z"/>
<path d="M7670 6710 c-15 -15 -20 -33 -20 -75 0 -62 22 -95 63 -95 39 0 62 35
62 95 0 84 -56 124 -105 75z"/>
<path d="M7955 6705 c-44 -43 -34 -55 46 -55 68 0 70 1 63 23 -18 59 -68 74
-109 32z"/>
<path d="M8358 6619 c-21 -12 -24 -49 -6 -67 31 -31 108 10 108 58 0 17 -6 20
-42 20 -24 0 -51 -5 -60 -11z"/>
<path d="M9334 6709 c-14 -15 -19 -36 -19 -74 0 -60 23 -95 62 -95 41 0 63 33
63 95 0 42 -5 60 -20 75 -26 26 -62 25 -86 -1z"/>
<path d="M9778 6619 c-21 -12 -24 -49 -6 -67 31 -31 108 10 108 58 0 17 -6 20
-42 20 -24 0 -51 -5 -60 -11z"/>
<path d="M10818 6619 c-21 -12 -24 -49 -6 -67 31 -31 108 10 108 58 0 17 -6
20 -42 20 -24 0 -51 -5 -60 -11z"/>
<path d="M12735 6705 c-44 -43 -34 -55 46 -55 68 0 70 1 63 23 -18 59 -68 74
-109 32z"/>
<path d="M13000 6710 c-15 -15 -20 -33 -20 -75 0 -62 22 -95 63 -95 40 0 62
35 62 97 0 45 -4 58 -24 74 -30 24 -56 24 -81 -1z"/>
<path d="M13855 6705 c-44 -43 -34 -55 46 -55 68 0 70 1 63 23 -18 59 -68 74
-109 32z"/>
<path d="M14712 6707 c-30 -32 -31 -114 -2 -145 46 -49 110 -7 110 73 0 80
-62 121 -108 72z"/>
<path d="M15115 6705 c-44 -43 -34 -55 46 -55 68 0 70 1 63 23 -18 59 -68 74
-109 32z"/>
<path d="M15875 6705 c-44 -43 -34 -55 46 -55 68 0 70 1 63 23 -18 59 -68 74
-109 32z"/>
<path d="M16398 6619 c-21 -12 -24 -49 -6 -67 31 -31 108 10 108 58 0 17 -6
20 -42 20 -24 0 -51 -5 -60 -11z"/>
<path d="M17028 6619 c-21 -12 -24 -49 -6 -67 31 -31 108 10 108 58 0 17 -6
20 -42 20 -24 0 -51 -5 -60 -11z"/>
<path d="M18400 6685 c-6 -8 -12 -30 -12 -50 0 -45 16 -65 53 -65 31 0 59 31
59 65 0 53 -69 88 -100 50z"/>
<path d="M2150 6005 l0 -46 48 3 47 3 0 40 0 40 -47 3 -48 3 0 -46z"/>
<path d="M7090 6006 l0 -46 38 0 c51 0 64 11 60 51 -3 33 -5 34 -50 37 l-48 3
0 -45z"/>
<path d="M3425 6000 c3 -5 8 -10 11 -10 2 0 4 5 4 10 0 6 -5 10 -11 10 -5 0
-7 -4 -4 -10z"/>
<path d="M4120 5999 c0 -5 5 -7 10 -4 6 3 10 8 10 11 0 2 -4 4 -10 4 -5 0 -10
-5 -10 -11z"/>
<path d="M6040 5999 c0 -5 5 -7 10 -4 6 3 10 8 10 11 0 2 -4 4 -10 4 -5 0 -10
-5 -10 -11z"/>
<path d="M2456 5968 l-17 -23 52 -3 c58 -4 68 2 53 26 -17 27 -69 27 -88 0z"/>
<path d="M3066 5968 l-17 -23 52 -3 c58 -4 68 2 53 26 -17 27 -69 27 -88 0z"/>
<path d="M3775 5880 c-9 -29 2 -40 40 -40 24 0 38 6 45 19 18 34 11 41 -34 41
-36 0 -46 -4 -51 -20z"/>
<path d="M4449 5964 c-7 -9 -13 -31 -13 -49 0 -44 19 -65 59 -65 24 0 34 6 43
25 16 35 15 56 -4 83 -18 26 -65 30 -85 6z"/>
<path d="M5446 5968 l-17 -23 52 -3 c58 -4 68 2 53 26 -17 27 -69 27 -88 0z"/>
<path d="M6216 5968 l-17 -23 52 -3 c58 -4 68 2 53 26 -17 27 -69 27 -88 0z"/>
<path d="M23747 4758 c-4 -51 -9 -109 -13 -128 -10 -66 -31 -285 -28 -291 2
-4 24 -4 48 -2 64 8 139 -20 176 -65 44 -54 74 -160 66 -237 -10 -89 -34 -152
-72 -190 -19 -19 -34 -37 -34 -39 0 -3 16 -8 35 -12 70 -13 95 40 104 226 5
91 9 115 21 115 10 0 17 -21 26 -76 19 -124 48 -161 137 -174 34 -5 47 -4 47
5 0 16 -159 329 -308 605 -69 127 -135 249 -147 271 -50 94 -51 94 -58 -8z"/>
<path d="M23723 4300 c-13 -5 -23 -13 -23 -17 0 -4 -5 -50 -10 -102 -9 -83 -8
-98 9 -137 25 -57 76 -129 123 -177 l38 -38 29 20 c88 63 106 298 30 395 -43
54 -135 81 -196 56z"/>
<path d="M23666 3923 c-11 -137 -12 -133 37 -133 46 0 117 17 117 28 0 4 -15
23 -33 43 -18 19 -47 58 -66 87 -18 29 -36 52 -41 52 -4 0 -10 -34 -14 -77z"/>
<path d="M23350 3749 c-155 -9 -291 -26 -302 -37 -37 -37 269 -109 422 -100
50 3 87 11 108 23 30 18 32 23 32 72 l0 53 -67 -1 c-38 -1 -124 -5 -193 -10z"/>
<path d="M30078 4418 c-28 -60 -119 -156 -195 -207 -168 -114 -294 -159 -522
-187 -68 -8 -127 -17 -131 -19 -5 -3 -52 -10 -106 -15 -140 -15 -153 -26 -193
-174 -21 -75 -21 -81 -6 -127 19 -57 47 -81 117 -105 75 -25 298 -15 428 19
132 35 310 108 371 153 69 50 79 78 79 217 0 101 3 119 25 163 15 30 50 73 88
106 34 30 71 71 82 91 17 32 17 40 5 76 -7 23 -16 41 -20 41 -3 0 -13 -15 -22
-32z"/>
<path d="M29294 4141 c-100 -50 -120 -64 -78 -56 62 12 184 69 184 85 0 18
-25 11 -106 -29z"/>
<path d="M3465 3205 c-5 -2 -22 -6 -36 -9 -57 -12 -68 -143 -15 -178 24 -16
75 -8 90 14 25 35 21 121 -6 152 -13 13 -27 23 -33 21z"/>
<path d="M3836 3178 c-9 -12 -16 -28 -16 -35 0 -7 -6 -13 -12 -13 -8 0 -9 -3
-3 -8 6 -4 12 -20 13 -37 6 -49 28 -75 65 -75 17 0 37 4 43 8 45 29 45 145 0
174 -24 16 -75 8 -90 -14z"/>
<path d="M3138 3183 c-9 -10 -20 -30 -23 -45 l-7 -28 71 0 c81 0 96 13 70 59
-19 34 -86 42 -111 14z"/>
<path d="M22561 2729 c-7 -23 -15 -47 -18 -55 -4 -11 5 -14 37 -14 32 0 41 3
37 14 -3 8 -11 32 -18 55 -7 23 -15 41 -19 41 -4 0 -12 -18 -19 -41z"/>
<path d="M28160 2770 c0 -27 3 -30 34 -30 18 0 39 7 46 15 19 22 -5 45 -46 45
-31 0 -34 -3 -34 -30z"/>
<path d="M28160 2640 l0 -41 41 3 c49 3 71 27 53 56 -7 11 -26 18 -53 20 l-41
3 0 -41z"/>
<path d="M24213 2643 c-18 -7 -16 -42 3 -50 24 -9 64 14 64 37 0 15 -6 20 -27
19 -16 0 -34 -3 -40 -6z"/>
<path d="M24793 2643 c-18 -7 -16 -42 3 -50 24 -9 64 14 64 37 0 15 -6 20 -27
19 -16 0 -34 -3 -40 -6z"/>
<path d="M28486 2724 c-26 -26 -18 -34 34 -34 28 0 50 4 50 9 0 16 -31 41 -50
41 -10 0 -26 -7 -34 -16z"/>
<path d="M29579 2714 c-7 -9 -13 -31 -13 -49 0 -40 19 -65 49 -65 31 0 47 23
47 65 0 20 -6 42 -12 50 -16 20 -54 19 -71 -1z"/>
<path d="M30557 2712 c-34 -38 -13 -112 32 -112 46 0 69 81 33 113 -24 22 -45
21 -65 -1z"/>
<path d="M3232 2428 c-15 -15 -15 -43 -1 -66 8 -13 21 -17 48 -14 45 5 68 25
73 63 l5 29 -57 0 c-31 0 -61 -5 -68 -12z"/>
<path d="M4445 2543 c-42 -5 -75 -26 -75 -50 0 -7 -4 -13 -8 -13 -5 0 -9 -7
-9 -15 0 -12 15 -15 74 -15 82 0 96 11 73 58 -8 15 -13 30 -12 35 1 4 1 6 0 5
-2 -1 -21 -3 -43 -5z"/>
<path d="M24197 2139 c-71 -42 -59 -236 17 -255 55 -14 96 42 96 131 0 100
-53 159 -113 124z"/>
<path d="M29667 2139 c-71 -42 -59 -236 17 -255 55 -14 96 42 96 131 0 100
-53 159 -113 124z"/>
<path d="M2993 1952 c-20 -13 -33 -61 -33 -127 0 -105 24 -145 81 -137 24 3
35 12 43 33 6 16 13 29 16 29 11 0 1 139 -14 173 -13 32 -19 37 -48 37 -18 0
-38 -4 -45 -8z"/>
<path d="M3261 1946 c-17 -20 -17 -76 0 -87 21 -13 85 -11 97 4 16 19 18 63 3
81 -17 20 -84 21 -100 2z"/>
<path d="M3256 1805 c-20 -21 -21 -79 0 -99 22 -22 87 -21 107 2 19 20 23 77
7 87 -6 4 -8 10 -6 14 3 4 -17 8 -43 10 -34 1 -54 -3 -65 -14z"/>
<path d="M3997 1962 c-22 -3 -32 -12 -44 -40 -20 -47 -19 -148 1 -195 14 -34
18 -37 56 -37 37 0 42 3 56 35 17 41 19 149 3 194 -13 36 -33 48 -72 43z"/>
</g>
</svg>
