<?xml version="1.0" standalone="no"?>
<!DOCTYPE svg PUBLIC "-//W3C//DTD SVG 20010904//EN"
 "http://www.w3.org/TR/2001/REC-SVG-20010904/DTD/svg10.dtd">
<svg version="1.0" xmlns="http://www.w3.org/2000/svg"
 width="1600.000000pt" height="1600.000000pt" viewBox="0 0 1600.000000 1600.000000"
 preserveAspectRatio="xMidYMid meet">

<g transform="translate(0.000000,1600.000000) scale(0.100000,-0.100000)"
fill="#000000" stroke="none">
<path d="M7380 15519 c-1472 -77 -2911 -410 -4255 -984 -460 -197 -924 -428
-1247 -622 l-158 -94 0 -4862 1 -4862 3135 -1810 c1724 -995 3139 -1811 3143
-1813 8 -3 6248 3595 6276 3618 13 11 15 619 13 4877 l-3 4865 -235 130
c-1720 946 -3527 1462 -5459 1558 -234 11 -981 11 -1211 -1z m635 -1804 c39
-8 113 -36 165 -61 188 -93 341 -289 384 -494 5 -25 6 -25 95 -22 152 6 275
-44 381 -154 69 -71 121 -171 128 -244 4 -42 1 -49 -24 -69 -20 -16 -35 -20
-54 -16 -37 10 -49 23 -61 69 -28 106 -105 196 -207 244 -49 23 -70 27 -148
27 -85 0 -95 -2 -165 -38 -84 -42 -111 -45 -139 -17 -39 39 -23 90 40 131 23
15 24 17 11 73 -45 200 -228 383 -432 431 -198 46 -396 -12 -545 -160 -72 -72
-136 -180 -150 -251 -6 -30 -4 -32 41 -43 57 -14 119 -45 145 -71 24 -24 26
-77 3 -102 -23 -26 -61 -22 -133 13 -117 59 -251 50 -359 -22 -103 -69 -162
-180 -163 -304 0 -140 78 -262 210 -327 l67 -33 437 -3 437 -3 21 -26 c26 -34
25 -59 -5 -88 l-24 -25 -422 0 c-352 0 -431 3 -483 16 -284 73 -448 372 -357
650 55 167 189 288 367 333 l67 17 14 54 c7 30 32 93 55 140 33 68 59 102 132
176 77 77 105 98 186 138 52 26 124 53 160 60 86 19 238 19 325 1z m477 -1186
c26 -14 58 -84 58 -129 0 -124 -78 -192 -169 -146 -69 36 -79 199 -16 262 26
26 90 33 127 13z m501 -138 l2 -141 -35 0 -35 0 3 100 c3 99 -2 116 -28 85
-16 -20 -30 -19 -46 3 -19 24 -18 26 23 58 30 23 99 47 111 38 2 -1 4 -65 5
-143z m240 123 c32 -31 41 -73 35 -156 -4 -53 -9 -65 -36 -89 -58 -52 -138
-34 -168 37 -30 72 -11 184 37 218 37 26 101 21 132 -10z m-963 -124 l0 -140
-35 0 -35 0 0 100 0 100 -26 -16 c-22 -15 -27 -15 -39 -3 -24 25 -21 37 20 68
28 21 51 31 78 31 l37 0 0 -140z m-10 -445 l0 -145 -35 0 -35 0 0 102 c0 97
-1 100 -18 85 -25 -22 -34 -21 -51 5 -12 20 -11 24 24 52 21 17 54 34 74 37
20 3 37 7 39 8 1 0 2 -64 2 -144z m240 0 l0 -145 -35 0 -35 0 0 100 0 100 -26
-17 c-25 -16 -27 -16 -40 2 -8 10 -14 24 -14 29 0 17 72 60 110 67 19 3 36 7
38 8 1 0 2 -64 2 -144z m240 -6 l0 -139 -35 0 -35 0 0 101 0 101 -25 -16 c-27
-18 -39 -15 -55 13 -7 15 -2 24 33 49 39 27 90 43 110 34 4 -2 7 -66 7 -143z
m250 123 c19 -20 31 -44 35 -75 17 -113 -25 -197 -100 -197 -82 0 -120 50
-119 155 1 68 23 121 57 135 47 19 97 12 127 -18z m-776 -391 c40 -45 38 -149
-5 -183 -28 -24 -70 -23 -97 2 -40 38 -41 141 -1 181 25 25 80 25 103 0z m166
-90 l0 -108 -25 5 c-24 4 -25 8 -25 74 0 64 -1 68 -19 59 -14 -8 -22 -7 -32 5
-12 14 -9 20 16 40 16 13 41 25 55 27 14 2 26 5 28 6 1 0 2 -48 2 -108z m165
103 c24 -10 45 -58 45 -104 0 -97 -76 -145 -135 -85 -21 20 -25 34 -25 85 0
51 4 65 25 85 24 24 57 31 90 19z m177 -105 c0 -102 -1 -103 -24 -103 -22 -1
-23 4 -26 73 -3 63 -5 71 -18 60 -12 -10 -18 -9 -32 5 -16 16 -15 18 12 39 26
19 75 37 84 31 2 -1 4 -49 4 -105z m413 86 c20 -19 25 -34 25 -77 0 -64 -17
-100 -51 -112 -69 -24 -114 28 -107 122 4 42 10 60 28 74 32 26 76 23 105 -7z
m163 -91 c-3 -97 -3 -98 -27 -98 -24 0 -24 1 -22 72 2 71 -3 84 -28 60 -10
-11 -15 -9 -27 7 -13 18 -12 21 8 37 28 22 80 38 91 28 4 -4 6 -51 5 -106z
m-345 -156 c31 -37 20 -156 -17 -180 -23 -16 -83 -8 -101 12 -23 26 -31 115
-13 150 28 51 94 61 131 18z m334 10 c37 -30 38 -143 2 -179 -29 -29 -94 -26
-115 6 -38 58 -22 164 28 185 25 10 66 4 85 -12z m-177 -93 l0 -105 -25 0
c-25 0 -25 2 -25 77 0 60 -3 74 -12 65 -17 -17 -37 -15 -45 4 -8 22 44 63 80
64 l27 0 0 -105z m-922 33 c18 -18 15 -103 -4 -122 -22 -23 -60 -20 -78 6 -35
50 -9 128 43 128 15 0 32 -5 39 -12z m110 -60 c-2 -57 -6 -73 -18 -73 -11 0
-16 13 -18 47 -2 34 -7 46 -17 42 -7 -3 -16 0 -21 7 -9 15 30 49 58 49 17 0
19 -6 16 -72z m308 -122 c14 -11 19 -26 19 -59 0 -52 -17 -77 -55 -77 -38 0
-55 25 -55 77 0 46 20 73 55 73 9 0 25 -6 36 -14z m114 -66 c0 -63 -2 -70 -20
-70 -17 0 -20 7 -20 51 0 31 -4 48 -10 44 -5 -3 -15 -3 -21 0 -16 11 20 45 48
45 22 0 23 -3 23 -70z m272 -1015 l3 -225 85 110 85 110 93 0 c57 0 92 -4 92
-10 0 -6 -40 -59 -90 -118 -49 -59 -90 -112 -90 -117 0 -6 43 -78 96 -160 53
-83 99 -156 101 -163 4 -10 -16 -12 -92 -10 l-97 3 -45 80 c-25 44 -52 91 -60
104 l-15 23 -34 -33 c-33 -32 -34 -36 -34 -106 l0 -74 -87 3 -88 3 -3 390 c-1
214 0 396 3 402 3 9 31 13 89 13 l86 0 2 -225z m-3234 93 l-3 -73 -102 -3
-103 -3 0 -299 0 -300 -90 0 -90 0 0 300 0 300 -100 0 -100 0 0 75 0 75 295 0
296 0 -3 -72z m1322 -68 l0 -140 125 0 125 0 0 140 0 140 90 0 90 0 0 -375 0
-375 -90 0 -90 0 0 155 0 155 -125 0 -125 0 0 -155 0 -155 -90 0 -90 0 0 375
0 375 90 0 90 0 0 -140z m2602 93 c9 -27 44 -127 77 -223 34 -96 61 -177 61
-180 1 -3 29 78 64 180 35 102 71 203 78 225 l15 40 102 3 101 3 -2 -373 -3
-373 -84 -3 -84 -3 7 218 c3 120 9 236 11 258 3 22 -23 -41 -59 -140 -35 -99
-71 -200 -80 -225 l-16 -45 -52 1 c-44 1 -53 5 -61 25 -5 13 -41 114 -79 224
-38 110 -67 182 -64 160 3 -22 9 -138 12 -257 l7 -218 -81 0 -82 0 -2 375 -3
375 101 0 100 0 16 -47z m-3493 -122 c13 -9 12 -27 -10 -113 -10 -37 -11 -38
-58 -38 -34 0 -56 -6 -75 -21 -50 -40 -56 -64 -56 -244 l0 -165 -90 0 -90 0 0
290 0 291 73 -3 c72 -3 72 -3 75 -33 5 -56 10 -58 46 -21 18 20 48 42 67 50
38 17 97 20 118 7z m1834 -16 c93 -44 117 -122 117 -382 l0 -183 -74 0 c-74 0
-74 0 -81 29 l-6 30 -35 -24 c-74 -51 -177 -59 -232 -18 -36 26 -72 99 -72
145 0 108 78 173 240 199 41 7 76 13 78 14 1 1 -3 14 -9 29 -8 17 -25 30 -48
37 -35 10 -82 0 -162 -35 -13 -6 -24 6 -49 49 -18 31 -31 58 -29 59 16 14 103
52 144 63 65 16 171 11 218 -12z m604 10 c27 -8 57 -23 67 -34 16 -17 15 -21
-24 -70 -41 -51 -54 -59 -65 -41 -3 6 -28 10 -55 10 -85 0 -129 -66 -118 -179
6 -63 38 -107 87 -122 33 -10 45 -8 84 9 l46 21 35 -57 c19 -31 33 -59 31 -62
-13 -21 -107 -53 -165 -58 -176 -12 -302 105 -304 283 -1 94 18 156 66 210 80
91 198 125 315 90z m2029 0 c57 -17 115 -70 139 -128 19 -45 31 -153 21 -191
l-6 -26 -165 0 c-176 0 -182 -2 -149 -48 35 -50 136 -68 209 -38 37 16 40 14
79 -62 l17 -33 -58 -26 c-122 -56 -275 -37 -356 43 -61 61 -81 115 -81 219 -1
79 2 97 27 147 62 127 189 183 323 143z m-4210 -136 c23 -73 51 -162 60 -198
17 -62 19 -64 26 -36 17 70 80 303 89 333 l11 32 85 0 c66 0 84 -3 80 -13 -3
-7 -50 -145 -106 -306 -108 -315 -137 -378 -189 -421 -51 -41 -145 -61 -210
-43 -26 6 -26 15 -2 103 9 33 12 36 43 32 39 -4 91 33 101 73 5 18 -24 100
-103 299 -59 152 -107 277 -105 278 1 2 42 2 90 1 l87 -1 43 -133z m-1361
-1303 c28 -14 61 -34 75 -45 l25 -20 -28 -29 -29 -30 -49 31 c-40 25 -60 30
-107 30 -93 0 -155 -41 -203 -133 -21 -40 -24 -59 -24 -166 0 -114 2 -123 30
-180 43 -83 104 -124 186 -124 67 0 109 15 156 54 l31 26 22 -30 c27 -38 23
-48 -28 -84 -56 -39 -107 -55 -173 -56 -205 -1 -330 147 -330 390 0 189 78
323 218 375 64 23 170 19 228 -9z m915 -28 l0 -43 -167 0 -168 0 0 -115 0
-115 143 -3 142 -3 0 -39 0 -40 -145 0 -145 0 0 -135 0 -135 175 0 175 0 0
-45 0 -45 -220 0 -220 0 0 380 0 380 215 0 215 0 0 -42z m739 31 c107 -23 161
-90 161 -199 0 -105 -40 -169 -128 -206 -39 -16 -46 5 69 -191 43 -75 79 -139
79 -144 0 -5 -24 -9 -52 -9 l-53 1 -90 159 -90 160 -67 0 -68 0 0 -160 0 -160
-50 0 -50 0 0 380 0 380 145 0 c79 0 167 -5 194 -11z m1011 -24 c0 -19 0 -38
0 -41 0 -4 -49 -6 -110 -5 l-110 2 -2 -338 -3 -338 -47 -3 -48 -3 -2 338 -3
338 -113 0 -112 0 0 43 0 42 275 0 275 0 0 -35z m468 -342 l-3 -378 -47 -3
-48 -3 0 380 0 381 50 0 50 0 -2 -377z m872 337 l0 -40 -170 0 -170 0 0 -130
0 -130 145 0 145 0 0 -40 0 -40 -145 0 -145 0 0 -170 0 -170 -50 0 -50 0 0
380 0 380 220 0 220 0 0 -40z m460 -340 l0 -380 -50 0 -50 0 0 380 0 380 50 0
50 0 0 -380z m870 340 l0 -40 -167 -2 -168 -3 -3 -117 -3 -118 146 0 145 0 0
-40 0 -40 -145 0 -145 0 0 -135 0 -135 175 0 175 0 0 -45 0 -45 -225 0 -225 0
0 380 0 380 220 0 220 0 0 -40z m705 25 c108 -28 190 -106 221 -211 21 -72 21
-225 0 -297 -36 -123 -125 -204 -250 -226 -34 -6 -111 -11 -169 -11 l-107 0 0
380 0 380 123 0 c77 0 145 -6 182 -15z"/>
<path d="M8413 12468 c-29 -36 -22 -142 10 -162 25 -16 47 11 53 70 7 73 -32
131 -63 92z"/>
<path d="M9132 12455 c-17 -37 -15 -107 4 -133 33 -48 64 -15 64 68 0 28 -5
60 -10 71 -15 27 -45 24 -58 -6z"/>
<path d="M8890 12009 c-7 -12 -12 -43 -12 -69 0 -83 40 -118 69 -60 37 73 -20
200 -57 129z"/>
<path d="M8149 11634 c-31 -37 -6 -140 27 -113 8 7 14 31 14 59 0 55 -19 80
-41 54z"/>
<path d="M8490 11631 c-22 -42 -9 -111 20 -111 10 0 21 7 24 16 15 39 -1 114
-24 114 -5 0 -14 -9 -20 -19z"/>
<path d="M9060 11631 c-22 -42 -9 -111 20 -111 10 0 21 7 24 16 15 39 -1 114
-24 114 -5 0 -14 -9 -20 -19z"/>
<path d="M8870 11381 c-14 -28 -13 -74 4 -96 21 -29 46 -3 46 45 0 67 -26 94
-50 51z"/>
<path d="M9217 11393 c-22 -39 -12 -116 16 -121 20 -4 30 29 25 84 -2 27 -8
40 -20 42 -9 2 -18 -1 -21 -5z"/>
<path d="M8134 11336 c-9 -22 0 -69 13 -73 15 -5 27 38 18 66 -7 24 -23 27
-31 7z"/>
<path d="M8554 11147 c-8 -35 -1 -62 16 -62 11 0 15 11 15 39 0 45 -21 60 -31
23z"/>
<path d="M7885 9765 c-41 -15 -75 -47 -75 -70 0 -44 79 -60 124 -24 21 17 26
29 26 65 0 50 -7 53 -75 29z"/>
<path d="M10522 9954 c-12 -8 -29 -28 -37 -45 l-16 -29 96 0 c93 0 95 1 95 23
0 55 -86 87 -138 51z"/>
<path d="M6500 8450 l0 -143 104 5 c117 5 164 25 186 78 18 43 16 105 -4 135
-31 48 -60 58 -177 63 l-109 5 0 -143z"/>
<path d="M10920 8290 l0 -303 81 6 c137 11 209 62 244 174 23 72 18 231 -9
283 -47 91 -114 130 -233 138 l-83 5 0 -303z"/>
</g>
</svg>
